<svg width="19" height="18" viewBox="0 0 19 18" fill="none" xmlns="http://www.w3.org/2000/svg">
<g clip-path="url(#clip0_1979_289)">
<path d="M8.71235 11.1038C9.46624 10.6019 10.0386 9.87067 10.3448 9.01832C10.651 8.16597 10.6748 7.23771 10.4126 6.37081C10.1504 5.50391 9.61621 4.74439 8.88899 4.20457C8.16177 3.66475 7.28013 3.37329 6.37445 3.37329C5.46878 3.37329 4.58714 3.66475 3.85992 4.20457C3.1327 4.74439 2.5985 5.50391 2.33633 6.37081C2.07416 7.23771 2.09792 8.16597 2.40412 9.01832C2.71031 9.87067 3.28267 10.6019 4.03656 11.1038C2.67285 11.6064 1.5082 12.5365 0.716408 13.7552C0.674794 13.8171 0.645889 13.8866 0.631373 13.9597C0.616857 14.0328 0.61702 14.1081 0.631851 14.1812C0.646683 14.2542 0.675888 14.3236 0.717768 14.3853C0.759649 14.4469 0.81337 14.4997 0.875808 14.5404C0.938247 14.5811 1.00816 14.609 1.08148 14.6225C1.1548 14.636 1.23006 14.6347 1.3029 14.6188C1.37573 14.603 1.44469 14.5728 1.50575 14.53C1.56681 14.4873 1.61877 14.4328 1.6586 14.3698C2.16934 13.5842 2.86822 12.9387 3.69178 12.4918C4.51533 12.045 5.43747 11.8109 6.37445 11.8109C7.31144 11.8109 8.23358 12.045 9.05713 12.4918C9.88069 12.9387 10.5796 13.5842 11.0903 14.3698C11.1728 14.4924 11.3003 14.5776 11.4451 14.607C11.5899 14.6364 11.7405 14.6076 11.8643 14.5269C11.9881 14.4462 12.0751 14.32 12.1066 14.1756C12.1381 14.0312 12.1115 13.8802 12.0325 13.7552C11.2407 12.5365 10.0761 11.6064 8.71235 11.1038ZM3.2807 7.59375C3.2807 6.98187 3.46215 6.38372 3.8021 5.87496C4.14204 5.36619 4.62522 4.96966 5.19053 4.7355C5.75584 4.50134 6.37789 4.44008 6.97802 4.55945C7.57814 4.67882 8.1294 4.97347 8.56207 5.40614C8.99474 5.83881 9.28939 6.39006 9.40876 6.99019C9.52813 7.59032 9.46687 8.21237 9.23271 8.77768C8.99855 9.34299 8.60202 9.82617 8.09325 10.1661C7.58449 10.5061 6.98634 10.6875 6.37445 10.6875C5.55423 10.6866 4.76786 10.3603 4.18787 9.78034C3.60788 9.20035 3.28164 8.41398 3.2807 7.59375ZM18.0562 14.5336C17.9312 14.6151 17.779 14.6436 17.6331 14.6129C17.4871 14.5821 17.3593 14.4947 17.2778 14.3698C16.7677 13.5838 16.0689 12.938 15.2452 12.4913C14.4214 12.0446 13.499 11.8112 12.562 11.8125C12.4128 11.8125 12.2697 11.7532 12.1642 11.6478C12.0587 11.5423 11.9995 11.3992 11.9995 11.25C11.9995 11.1008 12.0587 10.9577 12.1642 10.8523C12.2697 10.7468 12.4128 10.6875 12.562 10.6875C13.0176 10.6871 13.4674 10.586 13.8795 10.3916C14.2915 10.1971 14.6555 9.91406 14.9454 9.56262C15.2354 9.21119 15.4441 8.80006 15.5568 8.3586C15.6694 7.91713 15.6831 7.45624 15.597 7.00886C15.5109 6.56147 15.327 6.13863 15.0585 5.77055C14.79 5.40246 14.4435 5.09823 14.0438 4.87957C13.6441 4.66092 13.201 4.53324 12.7463 4.50567C12.2915 4.4781 11.8362 4.55132 11.413 4.72008C11.344 4.74991 11.2698 4.7656 11.1946 4.76624C11.1194 4.76688 11.0449 4.75244 10.9754 4.72378C10.9059 4.69512 10.8429 4.65283 10.79 4.59939C10.7371 4.54595 10.6955 4.48246 10.6676 4.41267C10.6397 4.34287 10.626 4.26819 10.6274 4.19303C10.6289 4.11787 10.6454 4.04377 10.6759 3.97509C10.7065 3.90641 10.7505 3.84455 10.8054 3.79317C10.8602 3.74179 10.9249 3.70193 10.9954 3.67594C11.9639 3.28968 13.0412 3.27578 14.0194 3.63692C14.9975 3.99806 15.8073 4.70866 16.2925 5.63162C16.7776 6.55459 16.9038 7.62452 16.6466 8.63502C16.3895 9.64552 15.7672 10.525 14.8998 11.1038C16.2636 11.6064 17.4282 12.5365 18.22 13.7552C18.3015 13.8802 18.33 14.0324 18.2993 14.1783C18.2685 14.3243 18.1811 14.4521 18.0562 14.5336Z" fill="black"/>
</g>
<defs>
<clipPath id="clip0_1979_289">
<rect width="18" height="18" fill="white" transform="translate(0.468262)"/>
</clipPath>
</defs>
</svg>
