<svg width="44" height="43" viewBox="0 0 44 43" fill="none" xmlns="http://www.w3.org/2000/svg">
<rect x="0.734131" width="43" height="43" rx="8" fill="#05A155"/>
<g clip-path="url(#clip0_1781_493)">
<path d="M10.2793 22.6337C9.97344 22.6548 9.74668 22.9132 9.7625 23.2191C9.78359 23.525 10.0473 23.757 10.3478 23.7359C10.4533 23.7306 21.1373 23.1664 26.0152 32.0943C26.1629 32.358 26.4951 32.4582 26.7641 32.3158C27.033 32.1681 27.1279 31.8359 26.9855 31.5669C21.7701 22.0326 10.3953 22.6285 10.2793 22.6337Z" fill="white"/>
<path d="M10.2741 25.492C9.96825 25.5131 9.7415 25.7768 9.76259 26.0773C9.78368 26.3779 10.0474 26.61 10.3479 26.5889C10.4323 26.5836 18.5165 26.0932 23.0042 32.1523C23.1835 32.3949 23.5315 32.4477 23.7741 32.2684C24.0167 32.0891 24.0694 31.741 23.8901 31.4984C19.0491 24.9646 10.6327 25.4656 10.2741 25.492Z" fill="white"/>
<path d="M28.789 19.7017V18.4941C29.9439 18.5257 31.2201 18.2779 32.0375 17.4605C33.3716 16.1263 33.0394 13.7374 33.0236 13.6372C32.9867 13.3947 32.7968 13.2048 32.5595 13.1732C32.4593 13.1574 30.1285 12.8357 28.789 14.1171C28.6941 13.3156 28.4251 12.3822 27.7449 11.7072C26.3369 10.2992 23.8162 10.6525 23.7107 10.6683C23.4681 10.7052 23.2835 10.8951 23.2466 11.1324C23.2308 11.2378 22.8775 13.7585 24.2855 15.1665C25.1451 16.0208 26.4792 16.2845 27.6921 16.2529V19.6964H16.9923V18.4941C18.1472 18.5257 19.4234 18.2779 20.2408 17.4605C21.575 16.1263 21.2427 13.7374 21.2269 13.6372C21.19 13.3947 21.0001 13.2048 20.7628 13.1732C20.6626 13.1574 18.3318 12.8357 16.9871 14.1171C16.8921 13.3156 16.6232 12.3822 15.9482 11.7072C14.5402 10.2992 12.0195 10.6525 11.914 10.6683C11.6714 10.7052 11.4816 10.8951 11.45 11.1324C11.4341 11.2378 11.0808 13.7585 12.4888 15.1665C13.4169 16.0947 14.825 16.2581 15.7056 16.2581H15.8902V19.7017H9.28257C8.97671 19.7017 8.73413 19.9496 8.73413 20.2501C8.73413 20.5507 8.98198 20.7986 9.28257 20.7986H10.1791C10.3056 20.8302 24.3593 19.997 28.9947 32.0257C29.1054 32.3052 29.4166 32.4529 29.7066 32.3421C29.9914 32.2314 30.1337 31.915 30.023 31.6302C29.4271 30.0798 28.6835 28.7404 27.8451 27.5749C31.1251 26.4148 34.0835 26.5994 34.1152 26.5994C34.421 26.6205 34.6794 26.3884 34.7005 26.0878C34.7216 25.782 34.4949 25.5236 34.189 25.5025C34.0466 25.4919 30.7718 25.2863 27.1384 26.6574C26.7482 26.1828 26.3421 25.7451 25.9203 25.3337C30.0916 23.4933 34.0677 23.7201 34.1099 23.7201C34.4105 23.7412 34.6742 23.5091 34.6953 23.2033C34.7164 22.8974 34.4843 22.639 34.1837 22.6179C33.9939 22.6074 29.6169 22.349 25.0343 24.5216C24.4701 24.0417 23.89 23.6146 23.3046 23.2296C26.8642 21.3681 31.1884 20.6246 35.1804 20.7986C35.4863 20.7986 35.7289 20.5507 35.7289 20.2501C35.7341 19.496 35.539 19.7017 28.789 19.7017ZM31.9689 14.2331C31.99 14.8607 31.9267 16.0156 31.2623 16.6853C30.5978 17.3497 29.4376 17.413 28.8101 17.3919C28.789 16.7644 28.8523 15.6095 29.522 14.9398C30.1812 14.2753 31.3414 14.2121 31.9689 14.2331ZM25.066 14.3914C24.3382 13.6583 24.2802 12.3874 24.3013 11.723C25.0501 11.6914 26.2789 11.8021 26.9644 12.4876C27.6921 13.2154 27.7501 14.4863 27.7291 15.1507C27.0646 15.1771 25.7937 15.1191 25.066 14.3914ZM20.1669 14.2331C20.188 14.8607 20.1248 16.0156 19.4603 16.6853C18.7958 17.3497 17.6357 17.413 17.0082 17.3919C16.9871 16.7644 17.0503 15.6095 17.7148 14.9398C18.3845 14.2753 19.5447 14.2121 20.1669 14.2331ZM13.264 14.3914C12.5363 13.6583 12.4783 12.3874 12.4994 11.723C13.2482 11.6914 14.4822 11.8021 15.1677 12.4876C15.8955 13.2206 15.9535 14.4915 15.9324 15.156C15.1835 15.1876 13.9496 15.0769 13.264 14.3914ZM18.2791 20.8566C18.221 20.8408 18.163 20.8197 18.105 20.8039H26.3263C24.9921 21.2205 23.5947 21.79 22.2236 22.5705C20.863 21.7953 19.5078 21.2468 18.2791 20.8566Z" fill="white"/>
</g>
<defs>
<clipPath id="clip0_1781_493">
<rect width="27" height="27" fill="white" transform="translate(8.73413 8)"/>
</clipPath>
</defs>
</svg>
