<svg width="27" height="23" viewBox="0 0 27 23" fill="none" xmlns="http://www.w3.org/2000/svg">
<path d="M1.54516 12.6339C1.2393 12.655 1.01255 12.9134 1.02837 13.2193C1.04946 13.5252 1.31313 13.7572 1.61372 13.7361C1.71919 13.7308 12.4032 13.1666 17.2811 22.0945C17.4288 22.3582 17.761 22.4584 18.0299 22.316C18.2989 22.1683 18.3938 21.8361 18.2514 21.5672C13.036 12.0328 1.66118 12.6287 1.54516 12.6339Z" fill="black"/>
<path d="M1.53998 15.4922C1.23412 15.5133 1.00737 15.777 1.02846 16.0775C1.04955 16.3781 1.31322 16.6102 1.61381 16.5891C1.69819 16.5838 9.78237 16.0934 14.2701 22.1525C14.4494 22.3951 14.7974 22.4479 15.04 22.2686C15.2826 22.0893 15.3353 21.7412 15.156 21.4986C10.315 14.9648 1.89858 15.4658 1.53998 15.4922Z" fill="black"/>
<path d="M20.0549 9.70178V8.49416C21.2098 8.5258 22.4859 8.27795 23.3033 7.46057C24.6375 6.12639 24.3053 3.73752 24.2895 3.63733C24.2525 3.39475 24.0627 3.2049 23.8254 3.17326C23.7252 3.15744 21.3943 2.83576 20.0549 4.11721C19.96 3.31565 19.691 2.38225 19.0107 1.70725C17.6027 0.299239 15.082 0.652559 14.9766 0.66838C14.734 0.705294 14.5494 0.895137 14.5125 1.13244C14.4967 1.23791 14.1434 3.75861 15.5514 5.16662C16.4109 6.02092 17.7451 6.28459 18.958 6.25295V9.69651H8.2582V8.49416C9.41309 8.5258 10.6893 8.27795 11.5066 7.46057C12.8408 6.12639 12.5086 3.73752 12.4928 3.63733C12.4559 3.39475 12.266 3.2049 12.0287 3.17326C11.9285 3.15744 9.59766 2.83576 8.25293 4.11721C8.15801 3.31565 7.88906 2.38225 7.21406 1.70725C5.80605 0.299239 3.28535 0.652559 3.17988 0.66838C2.9373 0.705294 2.74746 0.895137 2.71582 1.13244C2.7 1.23791 2.34668 3.75861 3.75469 5.16662C4.68281 6.09475 6.09082 6.25822 6.97148 6.25822H7.15605V9.70178H0.548437C0.242578 9.70178 0 9.94963 0 10.2502C0 10.5508 0.247852 10.7987 0.548437 10.7987H1.44492C1.57148 10.8303 15.6252 9.99709 20.2605 22.0258C20.3713 22.3053 20.6824 22.453 20.9725 22.3422C21.2572 22.2315 21.3996 21.9151 21.2889 21.6303C20.693 20.0799 19.9494 18.7405 19.1109 17.575C22.391 16.4149 25.3494 16.5994 25.3811 16.5994C25.6869 16.6205 25.9453 16.3885 25.9664 16.0879C25.9875 15.7821 25.7607 15.5237 25.4549 15.5026C25.3125 15.492 22.0377 15.2863 18.4043 16.6574C18.0141 16.1828 17.608 15.7451 17.1861 15.3338C21.3574 13.4934 25.3336 13.7201 25.3758 13.7201C25.6764 13.7412 25.94 13.5092 25.9611 13.2033C25.9822 12.8975 25.7502 12.6391 25.4496 12.618C25.2598 12.6074 20.8828 12.349 16.3002 14.5217C15.7359 14.0418 15.1559 13.6147 14.5705 13.2297C18.1301 11.3682 22.4543 10.6246 26.4463 10.7987C26.7521 10.7987 26.9947 10.5508 26.9947 10.2502C27 9.49611 26.8049 9.70178 20.0549 9.70178ZM23.2348 4.23322C23.2559 4.86076 23.1926 6.01565 22.5281 6.68537C21.8637 7.34983 20.7035 7.41311 20.076 7.39201C20.0549 6.76447 20.1182 5.60959 20.7879 4.93986C21.4471 4.27541 22.6072 4.21213 23.2348 4.23322ZM16.3318 4.39143C15.6041 3.65842 15.5461 2.38752 15.5672 1.72307C16.316 1.69143 17.5447 1.80217 18.2303 2.48772C18.958 3.21545 19.016 4.48635 18.9949 5.1508C18.3305 5.17717 17.0596 5.11916 16.3318 4.39143ZM11.4328 4.23322C11.4539 4.86076 11.3906 6.01565 10.7262 6.68537C10.0617 7.34983 8.90156 7.41311 8.27402 7.39201C8.25293 6.76447 8.31621 5.60959 8.98066 4.93986C9.65039 4.27541 10.8105 4.21213 11.4328 4.23322ZM4.52988 4.39143C3.80215 3.65842 3.74414 2.38752 3.76523 1.72307C4.51406 1.69143 5.74805 1.80217 6.43359 2.48772C7.16133 3.22072 7.21934 4.49162 7.19824 5.15608C6.44941 5.18772 5.21543 5.07697 4.52988 4.39143ZM9.54492 10.8567C9.48691 10.8408 9.42891 10.8197 9.3709 10.8039H17.5922C16.258 11.2205 14.8605 11.7901 13.4895 12.5705C12.1289 11.7953 10.7736 11.2469 9.54492 10.8567Z" fill="black"/>
</svg>
