<svg width="19" height="18" viewBox="0 0 19 18" fill="none" xmlns="http://www.w3.org/2000/svg">
<path d="M10.0891 15.499C10.0065 15.6232 9.87793 15.7094 9.7317 15.7388C9.58548 15.7682 9.43356 15.7384 9.30936 15.6558C7.19025 14.2461 4.70094 13.4959 2.15576 13.5C2.00658 13.5 1.8635 13.4407 1.75801 13.3352C1.65252 13.2298 1.59326 13.0867 1.59326 12.9375C1.59326 12.7883 1.65252 12.6452 1.75801 12.5398C1.8635 12.4343 2.00658 12.375 2.15576 12.375C4.92265 12.3708 7.62874 13.1865 9.93232 14.7192C10.0565 14.8018 10.1428 14.9304 10.1722 15.0766C10.2016 15.2229 10.1717 15.3748 10.0891 15.499ZM2.15576 10.125C2.00658 10.125 1.8635 10.1843 1.75801 10.2898C1.65252 10.3952 1.59326 10.5383 1.59326 10.6875C1.59326 10.8367 1.65252 10.9798 1.75801 11.0852C1.8635 11.1907 2.00658 11.25 2.15576 11.25C6.13181 11.2409 9.95108 12.8 12.7849 15.589C12.8372 15.6427 12.8997 15.6855 12.9687 15.7148C13.0378 15.744 13.112 15.7592 13.187 15.7593C13.262 15.7595 13.3362 15.7446 13.4054 15.7157C13.4746 15.6867 13.5373 15.6442 13.5898 15.5907C13.6423 15.5371 13.6835 15.4737 13.7112 15.4039C13.7388 15.3342 13.7522 15.2597 13.7505 15.1847C13.7489 15.1097 13.7323 15.0358 13.7017 14.9674C13.6711 14.8989 13.6272 14.8372 13.5724 14.786C10.5289 11.7899 6.42652 10.1151 2.15576 10.125ZM16.7808 11.25C15.631 11.2492 14.4849 11.3787 13.3643 11.636C13.7505 11.929 14.1255 12.2374 14.4893 12.5613C15.2468 12.4373 16.0131 12.3749 16.7808 12.375C16.9299 12.375 17.073 12.4343 17.1785 12.5398C17.284 12.6452 17.3433 12.7883 17.3433 12.9375C17.3433 13.0867 17.284 13.2298 17.1785 13.3352C17.073 13.4407 16.9299 13.5 16.7808 13.5C16.3589 13.5 15.9419 13.5204 15.5257 13.5605C15.9157 13.9669 16.2893 14.392 16.6465 14.8359C16.6954 14.8932 16.7323 14.9598 16.755 15.0316C16.7777 15.1035 16.7858 15.1791 16.7787 15.2541C16.7716 15.3292 16.7495 15.402 16.7137 15.4683C16.678 15.5346 16.6292 15.5931 16.5704 15.6402C16.5116 15.6873 16.444 15.7221 16.3715 15.7426C16.2989 15.763 16.223 15.7687 16.1483 15.7593C16.0735 15.7499 16.0014 15.7255 15.9363 15.6877C15.8711 15.6498 15.8142 15.5993 15.769 15.5391C14.1386 13.4945 12.0675 11.8446 9.71035 10.7124C7.35318 9.5801 4.77076 8.99475 2.15576 9C2.00658 9 1.8635 8.94074 1.75801 8.83525C1.65252 8.72976 1.59326 8.58668 1.59326 8.4375C1.59326 8.28832 1.65252 8.14524 1.75801 8.03975C1.8635 7.93426 2.00658 7.875 2.15576 7.875C3.28774 7.87521 4.41736 7.97805 5.53076 8.18227V5.625C5.53076 5.53767 5.55109 5.45155 5.59015 5.37344C5.6292 5.29534 5.6859 5.2274 5.75576 5.175L10.2558 1.8C10.3531 1.72698 10.4716 1.6875 10.5933 1.6875C10.715 1.6875 10.8334 1.72698 10.9308 1.8L15.4308 5.175C15.5006 5.2274 15.5573 5.29534 15.5964 5.37344C15.6354 5.45155 15.6558 5.53767 15.6558 5.625V7.90945C16.0291 7.88766 16.4039 7.875 16.7808 7.875C16.9299 7.875 17.073 7.93426 17.1785 8.03975C17.284 8.14524 17.3433 8.28832 17.3433 8.4375C17.3433 8.58668 17.284 8.72976 17.1785 8.83525C17.073 8.94074 16.9299 9 16.7808 9C14.7608 8.99614 12.7557 9.34571 10.8562 10.0329C11.2987 10.2673 11.7314 10.5199 12.1542 10.7909C13.6565 10.3482 15.2146 10.1239 16.7808 10.125C16.9299 10.125 17.073 10.1843 17.1785 10.2898C17.284 10.3952 17.3433 10.5383 17.3433 10.6875C17.3433 10.8367 17.284 10.9798 17.1785 11.0852C17.073 11.1907 16.9299 11.25 16.7808 11.25ZM8.90576 6.1875H12.2808C12.4299 6.1875 12.573 6.24676 12.6785 6.35225C12.784 6.45774 12.8433 6.60082 12.8433 6.75V8.29266C13.4001 8.17266 13.9626 8.07891 14.5308 8.01141V5.90625L10.5933 2.95312L6.65576 5.90625V8.42414C7.22717 8.56477 7.78967 8.73305 8.34326 8.92898V6.75C8.34326 6.60082 8.40252 6.45774 8.50801 6.35225C8.6135 6.24676 8.75658 6.1875 8.90576 6.1875ZM9.47318 9.37055C10.2036 9.05693 10.9535 8.79083 11.7183 8.57391V7.3125H9.46826V9.36844L9.47318 9.37055Z" fill="black"/>
</svg>
