<?xml version="1.0" encoding="UTF-8" standalone="no" ?>
<!DOCTYPE svg PUBLIC "-//W3C//DTD SVG 1.1//EN" "http://www.w3.org/Graphics/SVG/1.1/DTD/svg11.dtd">
<svg xmlns="http://www.w3.org/2000/svg" xmlns:xlink="http://www.w3.org/1999/xlink" version="1.1" width="1080" height="1080" viewBox="0 0 1080 1080" xml:space="preserve">
<desc>Created with Fabric.js 5.2.4</desc>
<defs>
</defs>
<g transform="matrix(1 0 0 1 540 540)" id="60669ffb-4ca3-4353-947e-1e3ec30c6daa"  >
<rect style="stroke: none; stroke-width: 1; stroke-dasharray: none; stroke-linecap: butt; stroke-dashoffset: 0; stroke-linejoin: miter; stroke-miterlimit: 4; fill: rgb(255,255,255); fill-rule: nonzero; opacity: 1; visibility: hidden;" vector-effect="non-scaling-stroke"  x="-540" y="-540" rx="0" ry="0" width="1080" height="1080" />
</g>
<g transform="matrix(1 0 0 1 540 540)" id="800d5cde-c9e3-4438-aba0-1fdadf1a50c2"  >
</g>
<g transform="matrix(1 0 0 1 540 540)"  >
<rect style="stroke: none; stroke-width: 1; stroke-dasharray: none; stroke-linecap: butt; stroke-dashoffset: 0; stroke-linejoin: miter; stroke-miterlimit: 4; fill: rgb(131,254,25); fill-opacity: 0; fill-rule: nonzero; opacity: 1;" vector-effect="non-scaling-stroke"  x="-21.5" y="-21.5" rx="8" ry="8" width="43" height="43" />
</g>
<g transform="matrix(1 0 0 1 536.17 546)" clip-path="url(#CLIPPATH_3)"  >
<clipPath id="CLIPPATH_3" >
	<rect transform="matrix(1 0 0 1 3.83 -6)" id="clip0_1781_493" x="-13.5" y="-13.5" rx="0" ry="0" width="27" height="27" />
</clipPath>
<path style="stroke: none; stroke-width: 1; stroke-dasharray: none; stroke-linecap: butt; stroke-dashoffset: 0; stroke-linejoin: miter; stroke-miterlimit: 4; fill: rgb(13,218,19); fill-opacity: 0.99; fill-rule: nonzero; opacity: 1;" vector-effect="non-scaling-stroke"  transform=" translate(-18.41, -27.5)" d="M 10.2793 22.6337 C 9.97344 22.6548 9.74668 22.9132 9.7625 23.2191 C 9.78359 23.525 10.0473 23.757 10.3478 23.7359 C 10.4533 23.7306 21.1373 23.1664 26.0152 32.0943 C 26.1629 32.358 26.4951 32.4582 26.7641 32.3158 C 27.033 32.1681 27.1279 31.8359 26.9855 31.5669 C 21.7701 22.0326 10.3953 22.6285 10.2793 22.6337 Z" stroke-linecap="round" />
</g>
<g transform="matrix(1 0 0 1 534.64 547.42)" clip-path="url(#CLIPPATH_4)"  >
<clipPath id="CLIPPATH_4" >
	<rect transform="matrix(1 0 0 1 5.36 -7.42)" id="clip0_1781_493" x="-13.5" y="-13.5" rx="0" ry="0" width="27" height="27" />
</clipPath>
<path style="stroke: none; stroke-width: 1; stroke-dasharray: none; stroke-linecap: butt; stroke-dashoffset: 0; stroke-linejoin: miter; stroke-miterlimit: 4; fill: rgb(13,218,19); fill-opacity: 0.99; fill-rule: nonzero; opacity: 1;" vector-effect="non-scaling-stroke"  transform=" translate(-16.88, -28.92)" d="M 10.2741 25.492 C 9.96825 25.5131 9.7415 25.7768 9.76259 26.0773 C 9.78368 26.3779 10.0474 26.61 10.3479 26.5889 C 10.4323 26.5836 18.5165 26.0932 23.0042 32.1523 C 23.1835 32.3949 23.5315 32.4477 23.7741 32.2684 C 24.0167 32.0891 24.0694 31.741 23.8901 31.4984 C 19.0491 24.9646 10.6327 25.4656 10.2741 25.492 Z" stroke-linecap="round" />
</g>
<g transform="matrix(1 0 0 1 540 540)" clip-path="url(#CLIPPATH_5)"  >
<clipPath id="CLIPPATH_5" >
	<rect transform="matrix(1 0 0 1 0 0)" id="clip0_1781_493" x="-13.5" y="-13.5" rx="0" ry="0" width="27" height="27" />
</clipPath>
<path style="stroke: rgb(0,0,0); stroke-width: 1; stroke-dasharray: none; stroke-linecap: butt; stroke-dashoffset: 0; stroke-linejoin: miter; stroke-miterlimit: 4; fill: rgb(218,13,13); fill-opacity: 0; fill-rule: nonzero; opacity: 1;" vector-effect="non-scaling-stroke"  transform=" translate(-22.23, -21.5)" d="M 28.789 19.7017 L 28.789 18.4941 C 29.9439 18.5257 31.2201 18.2779 32.0375 17.4605 C 33.3716 16.1263 33.0394 13.7374 33.0236 13.6372 C 32.9867 13.3947 32.7968 13.2048 32.5595 13.1732 C 32.4593 13.1574 30.1285 12.8357 28.789 14.1171 C 28.6941 13.3156 28.4251 12.3822 27.7449 11.7072 C 26.3369 10.2992 23.8162 10.6525 23.7107 10.6683 C 23.4681 10.7052 23.2835 10.8951 23.2466 11.1324 C 23.2308 11.2378 22.8775 13.7585 24.2855 15.1665 C 25.1451 16.0208 26.4792 16.2845 27.6921 16.2529 L 27.6921 19.6964 L 16.9923 19.6964 L 16.9923 18.4941 C 18.1472 18.5257 19.4234 18.2779 20.2408 17.4605 C 21.575 16.1263 21.2427 13.7374 21.2269 13.6372 C 21.19 13.3947 21.0001 13.2048 20.7628 13.1732 C 20.6626 13.1574 18.3318 12.8357 16.9871 14.1171 C 16.8921 13.3156 16.6232 12.3822 15.9482 11.7072 C 14.5402 10.2992 12.0195 10.6525 11.914 10.6683 C 11.6714 10.7052 11.4816 10.8951 11.45 11.1324 C 11.4341 11.2378 11.0808 13.7585 12.4888 15.1665 C 13.4169 16.0947 14.825 16.2581 15.7056 16.2581 L 15.8902 16.2581 L 15.8902 19.7017 L 9.28257 19.7017 C 8.97671 19.7017 8.73413 19.9496 8.73413 20.2501 C 8.73413 20.5507 8.98198 20.7986 9.28257 20.7986 L 10.1791 20.7986 C 10.3056 20.8302 24.3593 19.997 28.9947 32.0257 C 29.1054 32.3052 29.4166 32.4529 29.7066 32.3421 C 29.9914 32.2314 30.1337 31.915 30.023 31.6302 C 29.4271 30.0798 28.6835 28.7404 27.8451 27.5749 C 31.1251 26.4148 34.0835 26.5994 34.1152 26.5994 C 34.421 26.6205 34.6794 26.3884 34.7005 26.0878 C 34.7216 25.782 34.4949 25.5236 34.189 25.5025 C 34.0466 25.4919 30.7718 25.2863 27.1384 26.6574 C 26.7482 26.1828 26.3421 25.7451 25.9203 25.3337 C 30.0916 23.4933 34.0677 23.7201 34.1099 23.7201 C 34.4105 23.7412 34.6742 23.5091 34.6953 23.2033 C 34.7164 22.8974 34.4843 22.639 34.1837 22.6179 C 33.9939 22.6074 29.6169 22.349 25.0343 24.5216 C 24.4701 24.0417 23.89 23.6146 23.3046 23.2296 C 26.8642 21.3681 31.1884 20.6246 35.1804 20.7986 C 35.4863 20.7986 35.7289 20.5507 35.7289 20.2501 C 35.7341 19.496 35.539 19.7017 28.789 19.7017 Z M 31.9689 14.2331 C 31.99 14.8607 31.9267 16.0156 31.2623 16.6853 C 30.5978 17.3497 29.4376 17.413 28.8101 17.3919 C 28.789 16.7644 28.8523 15.6095 29.522 14.9398 C 30.1812 14.2753 31.3414 14.2121 31.9689 14.2331 Z M 25.066 14.3914 C 24.3382 13.6583 24.2802 12.3874 24.3013 11.723 C 25.0501 11.6914 26.2789 11.8021 26.9644 12.4876 C 27.6921 13.2154 27.7501 14.4863 27.7291 15.1507 C 27.0646 15.1771 25.7937 15.1191 25.066 14.3914 Z M 20.1669 14.2331 C 20.188 14.8607 20.1248 16.0156 19.4603 16.6853 C 18.7958 17.3497 17.6357 17.413 17.0082 17.3919 C 16.9871 16.7644 17.0503 15.6095 17.7148 14.9398 C 18.3845 14.2753 19.5447 14.2121 20.1669 14.2331 Z M 13.264 14.3914 C 12.5363 13.6583 12.4783 12.3874 12.4994 11.723 C 13.2482 11.6914 14.4822 11.8021 15.1677 12.4876 C 15.8955 13.2206 15.9535 14.4915 15.9324 15.156 C 15.1835 15.1876 13.9496 15.0769 13.264 14.3914 Z M 18.2791 20.8566 C 18.221 20.8408 18.163 20.8197 18.105 20.8039 L 26.3263 20.8039 C 24.9921 21.2205 23.5947 21.79 22.2236 22.5705 C 20.863 21.7953 19.5078 21.2468 18.2791 20.8566 Z" stroke-linecap="round" />
</g>
</svg>