<svg width="28" height="27" viewBox="0 0 28 27" fill="none" xmlns="http://www.w3.org/2000/svg">
<path d="M15.4998 18.9844C15.4998 19.2347 15.4255 19.4794 15.2865 19.6875C15.1474 19.8957 14.9497 20.0579 14.7185 20.1537C14.4872 20.2495 14.2327 20.2745 13.9872 20.2257C13.7417 20.1768 13.5162 20.0563 13.3392 19.8793C13.1622 19.7023 13.0417 19.4768 12.9928 19.2313C12.944 18.9858 12.9691 18.7313 13.0649 18.5C13.1606 18.2688 13.3229 18.0711 13.531 17.932C13.7391 17.793 13.9838 17.7188 14.2341 17.7188C14.5698 17.7188 14.8917 17.8521 15.1291 18.0894C15.3664 18.3268 15.4998 18.6487 15.4998 18.9844ZM14.2341 7.59375C11.9075 7.59375 10.0154 9.29707 10.0154 11.3906V11.8125C10.0154 12.0363 10.1043 12.2509 10.2625 12.4091C10.4207 12.5674 10.6354 12.6563 10.8591 12.6563C11.0829 12.6563 11.2975 12.5674 11.4558 12.4091C11.614 12.2509 11.7029 12.0363 11.7029 11.8125V11.3906C11.7029 10.2305 12.8388 9.28125 14.2341 9.28125C15.6295 9.28125 16.7654 10.2305 16.7654 11.3906C16.7654 12.5508 15.6295 13.5 14.2341 13.5C14.0104 13.5 13.7957 13.5889 13.6375 13.7471C13.4793 13.9054 13.3904 14.12 13.3904 14.3438V15.1875C13.3904 15.4113 13.4793 15.6259 13.6375 15.7841C13.7957 15.9424 14.0104 16.0313 14.2341 16.0313C14.4579 16.0313 14.6725 15.9424 14.8308 15.7841C14.989 15.6259 15.0779 15.4113 15.0779 15.1875V15.1116C17.0016 14.7582 18.4529 13.2237 18.4529 11.3906C18.4529 9.29707 16.5608 7.59375 14.2341 7.59375ZM25.2029 13.5C25.2029 15.6694 24.5596 17.7901 23.3543 19.5939C22.1491 21.3977 20.436 22.8036 18.4317 23.6338C16.4274 24.464 14.222 24.6812 12.0942 24.258C9.96651 23.8348 8.01207 22.7901 6.47806 21.2561C4.94405 19.7221 3.89938 17.7676 3.47615 15.6399C3.05292 13.5122 3.27013 11.3067 4.10033 9.30244C4.93053 7.29816 6.33642 5.58508 8.14022 4.37982C9.94403 3.17456 12.0647 2.53125 14.2341 2.53125C17.1423 2.53432 19.9304 3.69094 21.9868 5.74731C24.0432 7.80369 25.1998 10.5918 25.2029 13.5ZM23.5154 13.5C23.5154 11.6643 22.9711 9.86991 21.9512 8.34361C20.9314 6.81732 19.4818 5.62772 17.7859 4.92524C16.09 4.22277 14.2238 4.03897 12.4235 4.39709C10.6231 4.75521 8.96931 5.63916 7.6713 6.93717C6.3733 8.23517 5.48934 9.88893 5.13122 11.6893C4.7731 13.4897 4.9569 15.3559 5.65938 17.0518C6.36185 18.7477 7.55146 20.1972 9.07775 21.2171C10.604 22.2369 12.3985 22.7813 14.2341 22.7813C16.6948 22.7785 19.0539 21.7997 20.7939 20.0598C22.5339 18.3198 23.5126 15.9607 23.5154 13.5Z" fill="black"/>
</svg>
