<svg width="19" height="18" viewBox="0 0 19 18" fill="none" xmlns="http://www.w3.org/2000/svg">
<path d="M9.46838 4.49976V8.99976H12.8434M16.2184 8.99976C16.2184 9.88618 16.0438 10.7639 15.7046 11.5829C15.3654 12.4018 14.8681 13.1459 14.2414 13.7727C13.6146 14.3995 12.8704 14.8967 12.0515 15.2359C11.2325 15.5752 10.3548 15.7498 9.46838 15.7498C8.58196 15.7498 7.70422 15.5752 6.88527 15.2359C6.06632 14.8967 5.32221 14.3995 4.69541 13.7727C4.06862 13.1459 3.57142 12.4018 3.2322 11.5829C2.89298 10.7639 2.71838 9.88618 2.71838 8.99976C2.71838 7.20954 3.42954 5.49266 4.69541 4.22679C5.96128 2.96091 7.67817 2.24976 9.46838 2.24976C11.2586 2.24976 12.9755 2.96091 14.2414 4.22679C15.5072 5.49266 16.2184 7.20954 16.2184 8.99976Z" stroke="black" stroke-width="1.5" stroke-linecap="round" stroke-linejoin="round"/>
</svg>
