<svg width="19" height="17" viewBox="0 0 19 17" fill="none" xmlns="http://www.w3.org/2000/svg">
<path d="M17.9679 13.6946L11.1358 1.82974C10.9651 1.53906 10.7214 1.29803 10.4288 1.13057C10.1362 0.9631 9.80499 0.875 9.46788 0.875C9.13077 0.875 8.79951 0.9631 8.50694 1.13057C8.21436 1.29803 7.97064 1.53906 7.79991 1.82974L0.967879 13.6946C0.80361 13.9757 0.717041 14.2955 0.717041 14.6211C0.717041 14.9468 0.80361 15.2665 0.967879 15.5477C1.13642 15.8401 1.37973 16.0825 1.67285 16.2498C1.96597 16.4172 2.29834 16.5036 2.63585 16.5001H16.2999C16.6372 16.5033 16.9692 16.4168 17.262 16.2494C17.5548 16.0821 17.7979 15.8399 17.9663 15.5477C18.1308 15.2667 18.2177 14.947 18.2179 14.6214C18.2182 14.2957 18.1319 13.9759 17.9679 13.6946ZM16.8843 14.9219C16.8247 15.0235 16.7392 15.1075 16.6365 15.1651C16.5338 15.2228 16.4177 15.2521 16.2999 15.2501H2.63585C2.5181 15.2521 2.40192 15.2228 2.29923 15.1651C2.19654 15.1075 2.11103 15.0235 2.05147 14.9219C1.99752 14.8306 1.96906 14.7264 1.96906 14.6204C1.96906 14.5143 1.99752 14.4101 2.05147 14.3188L8.8835 2.45396C8.94427 2.35284 9.03016 2.26917 9.13284 2.21108C9.23551 2.153 9.35147 2.12247 9.46944 2.12247C9.58741 2.12247 9.70337 2.153 9.80604 2.21108C9.90872 2.26917 9.99462 2.35284 10.0554 2.45396L16.8874 14.3188C16.9409 14.4104 16.9688 14.5147 16.9683 14.6208C16.9677 14.7269 16.9387 14.8309 16.8843 14.9219ZM8.84288 10.2501V7.12505C8.84288 6.95929 8.90873 6.80032 9.02594 6.68311C9.14315 6.5659 9.30212 6.50005 9.46788 6.50005C9.63364 6.50005 9.79261 6.5659 9.90982 6.68311C10.027 6.80032 10.0929 6.95929 10.0929 7.12505V10.2501C10.0929 10.4158 10.027 10.5748 9.90982 10.692C9.79261 10.8092 9.63364 10.8751 9.46788 10.8751C9.30212 10.8751 9.14315 10.8092 9.02594 10.692C8.90873 10.5748 8.84288 10.4158 8.84288 10.2501ZM10.4054 13.0626C10.4054 13.248 10.3504 13.4292 10.2474 13.5834C10.1444 13.7376 9.99795 13.8577 9.82664 13.9287C9.65534 13.9996 9.46684 14.0182 9.28498 13.982C9.10312 13.9459 8.93608 13.8566 8.80497 13.7255C8.67385 13.5944 8.58457 13.4273 8.54839 13.2454C8.51222 13.0636 8.53078 12.8751 8.60174 12.7038C8.6727 12.5325 8.79286 12.3861 8.94703 12.283C9.1012 12.18 9.28246 12.1251 9.46788 12.1251C9.71652 12.1251 9.95498 12.2238 10.1308 12.3996C10.3066 12.5755 10.4054 12.8139 10.4054 13.0626Z" fill="black"/>
</svg>
