<svg width="20" height="12" viewBox="0 0 20 12" fill="none" xmlns="http://www.w3.org/2000/svg">
<path d="M15.0933 0.375H1.96826C1.47098 0.375 0.994067 0.572544 0.642437 0.924175C0.290806 1.27581 0.0932617 1.75272 0.0932617 2.25V9.75C0.0932617 10.2473 0.290806 10.7242 0.642437 11.0758C0.994067 11.4275 1.47098 11.625 1.96826 11.625H15.0933C15.5905 11.625 16.0675 11.4275 16.4191 11.0758C16.7707 10.7242 16.9683 10.2473 16.9683 9.75V2.25C16.9683 1.75272 16.7707 1.27581 16.4191 0.924175C16.0675 0.572544 15.5905 0.375 15.0933 0.375ZM15.7183 9.75C15.7183 9.91576 15.6524 10.0747 15.5352 10.1919C15.418 10.3092 15.259 10.375 15.0933 10.375H1.96826C1.8025 10.375 1.64353 10.3092 1.52632 10.1919C1.40911 10.0747 1.34326 9.91576 1.34326 9.75V2.25C1.34326 2.08424 1.40911 1.92527 1.52632 1.80806C1.64353 1.69085 1.8025 1.625 1.96826 1.625H15.0933C15.259 1.625 15.418 1.69085 15.5352 1.80806C15.6524 1.92527 15.7183 2.08424 15.7183 2.25V9.75ZM10.7183 3.5V8.5C10.7183 8.66576 10.6524 8.82473 10.5352 8.94194C10.418 9.05915 10.259 9.125 10.0933 9.125C9.9275 9.125 9.76853 9.05915 9.65132 8.94194C9.53411 8.82473 9.46826 8.66576 9.46826 8.5V3.5C9.46826 3.33424 9.53411 3.17527 9.65132 3.05806C9.76853 2.94085 9.9275 2.875 10.0933 2.875C10.259 2.875 10.418 2.94085 10.5352 3.05806C10.6524 3.17527 10.7183 3.33424 10.7183 3.5ZM7.59326 3.5V8.5C7.59326 8.66576 7.52741 8.82473 7.4102 8.94194C7.29299 9.05915 7.13402 9.125 6.96826 9.125C6.8025 9.125 6.64353 9.05915 6.52632 8.94194C6.40911 8.82473 6.34326 8.66576 6.34326 8.5V3.5C6.34326 3.33424 6.40911 3.17527 6.52632 3.05806C6.64353 2.94085 6.8025 2.875 6.96826 2.875C7.13402 2.875 7.29299 2.94085 7.4102 3.05806C7.52741 3.17527 7.59326 3.33424 7.59326 3.5ZM4.46826 3.5V8.5C4.46826 8.66576 4.40241 8.82473 4.2852 8.94194C4.16799 9.05915 4.00902 9.125 3.84326 9.125C3.6775 9.125 3.51853 9.05915 3.40132 8.94194C3.28411 8.82473 3.21826 8.66576 3.21826 8.5V3.5C3.21826 3.33424 3.28411 3.17527 3.40132 3.05806C3.51853 2.94085 3.6775 2.875 3.84326 2.875C4.00902 2.875 4.16799 2.94085 4.2852 3.05806C4.40241 3.17527 4.46826 3.33424 4.46826 3.5ZM19.4683 3.5V8.5C19.4683 8.66576 19.4024 8.82473 19.2852 8.94194C19.168 9.05915 19.009 9.125 18.8433 9.125C18.6775 9.125 18.5185 9.05915 18.4013 8.94194C18.2841 8.82473 18.2183 8.66576 18.2183 8.5V3.5C18.2183 3.33424 18.2841 3.17527 18.4013 3.05806C18.5185 2.94085 18.6775 2.875 18.8433 2.875C19.009 2.875 19.168 2.94085 19.2852 3.05806C19.4024 3.17527 19.4683 3.33424 19.4683 3.5Z" fill="black"/>
</svg>
