<svg width="29" height="28" viewBox="0 0 29 28" fill="none" xmlns="http://www.w3.org/2000/svg">
<rect x="0.468262" width="28" height="28" rx="14" fill="#333333"/>
<path d="M16.6506 17.1247C15.5819 17.9553 14.237 18.3471 12.8897 18.2204C11.5424 18.0937 10.2941 17.458 9.3988 16.4427C8.50353 15.4275 8.02869 14.109 8.07096 12.7557C8.11322 11.4025 8.66942 10.1162 9.62629 9.15883C10.5832 8.20146 11.8688 7.64498 13.2213 7.6027C14.5739 7.56041 15.8917 8.03549 16.9065 8.93122C17.9212 9.82694 18.5566 11.0759 18.6832 12.4239C18.8099 13.7719 18.4182 15.1175 17.5881 16.1867L20.6723 19.261C20.9334 19.5212 20.9338 19.9439 20.6732 20.2047C20.4125 20.4654 19.9898 20.4652 19.7294 20.2042L16.6572 17.1247H16.6506ZM13.3926 16.9118C13.9165 16.9118 14.4353 16.8086 14.9193 16.608C15.4033 16.4074 15.8431 16.1134 16.2135 15.7428C16.5839 15.3721 16.8778 14.9321 17.0783 14.4479C17.2788 13.9636 17.382 13.4446 17.382 12.9204C17.382 12.3963 17.2788 11.8773 17.0783 11.393C16.8778 10.9087 16.5839 10.4687 16.2135 10.0981C15.8431 9.72747 15.4033 9.43347 14.9193 9.23289C14.4353 9.0323 13.9165 8.92906 13.3926 8.92906C12.3346 8.92906 11.3199 9.34958 10.5717 10.0981C9.82359 10.8466 9.40329 11.8619 9.40329 12.9204C9.40329 13.979 9.82359 14.9942 10.5717 15.7428C11.3199 16.4913 12.3346 16.9118 13.3926 16.9118Z" fill="white"/>
</svg>
