<svg width="16" height="18" viewBox="0 0 16 18" fill="none" xmlns="http://www.w3.org/2000/svg">
<path d="M11.5928 16.5C11.5928 16.6658 11.5269 16.8247 11.4097 16.9419C11.2925 17.0592 11.1336 17.125 10.9678 17.125H5.9678C5.80204 17.125 5.64306 17.0592 5.52585 16.9419C5.40864 16.8247 5.3428 16.6658 5.3428 16.5C5.3428 16.3342 5.40864 16.1753 5.52585 16.0581C5.64306 15.9408 5.80204 15.875 5.9678 15.875H10.9678C11.1336 15.875 11.2925 15.9408 11.4097 16.0581C11.5269 16.1753 11.5928 16.3342 11.5928 16.5ZM15.7998 14C15.6914 14.191 15.5339 14.3497 15.3437 14.4595C15.1535 14.5694 14.9375 14.6265 14.7178 14.625H2.2178C1.99806 14.6247 1.78228 14.5665 1.59222 14.4562C1.40215 14.346 1.24451 14.1875 1.13518 13.9969C1.02585 13.8063 0.968702 13.5903 0.96949 13.3705C0.970279 13.1508 1.02898 12.9351 1.13967 12.7453C1.57327 11.9984 2.2178 9.88594 2.2178 7.125C2.2178 5.4674 2.87628 3.87769 4.04838 2.70558C5.22048 1.53348 6.81019 0.875 8.4678 0.875C10.1254 0.875 11.7151 1.53348 12.8872 2.70558C14.0593 3.87769 14.7178 5.4674 14.7178 7.125C14.7178 9.88516 15.3631 11.9984 15.7967 12.7453C15.9085 12.9354 15.9676 13.1518 15.9681 13.3723C15.9685 13.5929 15.9101 13.8095 15.799 14H15.7998ZM14.7178 13.375C14.1139 12.3383 13.4678 9.94141 13.4678 7.125C13.4678 5.79892 12.941 4.52715 12.0033 3.58947C11.0656 2.65178 9.79388 2.125 8.4678 2.125C7.14171 2.125 5.86994 2.65178 4.93226 3.58947C3.99458 4.52715 3.4678 5.79892 3.4678 7.125C3.4678 9.94219 2.82092 12.3391 2.2178 13.375H14.7178Z" fill="black"/>
</svg>
