<svg width="28" height="27" viewBox="0 0 28 27" fill="none" xmlns="http://www.w3.org/2000/svg">
<path d="M26.3218 4.25598C28.5652 3.35819 27.9785 0.0431314 25.5309 0C23.083 0.0433423 22.4969 3.35861 24.74 4.25598V7.37088C22.1883 4.1945 18.3122 2.32704 14.2352 2.34175C10.1576 2.32688 6.27995 4.19556 3.72866 7.37299V4.25598C5.97202 3.35819 5.38532 0.0431314 2.93769 0C0.489748 0.0433423 -0.0962698 3.35861 2.14683 4.25598V9.83797C1.23427 11.676 0.751331 13.7136 0.751331 15.8256V16.255C0.751331 18.354 1.71752 20.2315 3.22828 21.4666C1.37684 21.8637 0.646455 24.2519 1.95189 25.6342L2.96511 26.7427C3.11496 26.9066 3.32677 27.0001 3.54891 27.0001H25.094C25.3334 27.0001 25.5599 26.8916 25.71 26.7052L26.6651 25.5193C27.5849 24.4139 27.3405 22.6345 26.1275 21.8521C25.8547 21.6704 25.5534 21.542 25.2371 21.4707C26.7507 20.2356 27.7191 18.3564 27.7191 16.255V15.8256C27.7191 13.7123 27.2355 11.6734 26.3219 9.83449V4.25598H26.3218ZM25.5309 1.58184C25.8727 1.58184 26.1508 1.85992 26.1508 2.20176C26.1167 3.02416 24.9449 3.02389 24.911 2.20176C24.911 1.85992 25.1891 1.58184 25.5309 1.58184ZM2.93775 1.58184C3.27958 1.58184 3.55767 1.85992 3.55767 2.20176C3.5236 3.02416 2.35178 3.02389 2.31782 2.20176C2.31782 1.85992 2.59591 1.58184 2.93775 1.58184ZM25.6345 23.7779C25.6755 24.0442 25.6021 24.3173 25.4331 24.5271L24.7155 25.4182H3.8975L3.1195 24.567C2.86256 24.2859 2.79796 23.9059 2.9466 23.5505C3.08834 23.2116 3.38794 23.0012 3.74786 22.9875C3.76241 22.9869 3.77702 22.9866 3.79173 22.9866H24.6434C24.8619 22.9866 25.0719 23.0495 25.2507 23.1686C25.4591 23.3074 25.5954 23.5238 25.6345 23.7779ZM26.1372 16.2549C26.1372 19.0935 23.8278 21.4029 20.9892 21.4029H7.48115C4.64254 21.4029 2.33317 19.0935 2.33317 16.2549C2.22819 12.9473 3.47219 9.75018 5.81917 7.40959C10.2495 2.79231 18.221 2.79247 22.6512 7.40959C24.9859 9.72065 26.2376 12.9394 26.1372 16.2549Z" fill="black"/>
<path d="M19.3832 8.8611H9.08493C2.38675 9.13919 2.39192 18.6811 9.08493 18.9566H19.3832C26.0813 18.6786 26.0762 9.13666 19.3832 8.8611ZM19.3832 17.3748H9.08493C4.48579 17.1839 4.48938 10.6322 9.08493 10.4429H19.3832C23.9823 10.6339 23.9788 17.1856 19.3832 17.3748Z" fill="black"/>
<path d="M9.78321 11.7009C8.57205 11.7009 7.58667 12.6863 7.58667 13.8975C7.70731 16.8115 11.8596 16.8106 11.9797 13.8975C11.9797 12.6863 10.9944 11.7009 9.78321 11.7009ZM9.78321 14.5122C9.44427 14.5122 9.16851 14.2365 9.16851 13.8975C9.20225 13.082 10.3643 13.0822 10.3979 13.8975C10.3979 14.2365 10.1221 14.5122 9.78321 14.5122Z" fill="black"/>
<path d="M18.6853 11.7009C17.4741 11.7009 16.4888 12.6863 16.4888 13.8975C16.6094 16.8115 20.7617 16.8106 20.8818 13.8975C20.8818 12.6863 19.8965 11.7009 18.6853 11.7009ZM18.6853 14.5122C18.3464 14.5122 18.0706 14.2365 18.0706 13.8975C18.1044 13.082 19.2664 13.0822 19.3 13.8975C19.3 14.2365 19.0242 14.5122 18.6853 14.5122Z" fill="black"/>
</svg>
