<svg width="16" height="17" viewBox="0 0 16 17" fill="none" xmlns="http://www.w3.org/2000/svg">
<path d="M14 7.5H14.25C14.664 7.5 15 7.836 15 8.25V9.75C15 10.164 14.664 10.5 14.25 10.5H14M3 7.5H12V10.5H3V7.5ZM2.5 12.5H12.5C12.8978 12.5 13.2794 12.342 13.5607 12.0607C13.842 11.7794 14 11.3978 14 11V7C14 6.60218 13.842 6.22064 13.5607 5.93934C13.2794 5.65804 12.8978 5.5 12.5 5.5H2.5C2.10218 5.5 1.72064 5.65804 1.43934 5.93934C1.15804 6.22064 1 6.60218 1 7V11C1 11.3978 1.15804 11.7794 1.43934 12.0607C1.72064 12.342 2.10218 12.5 2.5 12.5Z" stroke="#333333" stroke-width="1.2" stroke-linecap="round" stroke-linejoin="round"/>
</svg>
