<svg width="102" height="80" viewBox="0 0 102 80" fill="none" xmlns="http://www.w3.org/2000/svg">
<path d="M55.5894 14.866L54.3901 15.5624L54.3914 22.386C54.3888 23.381 54.038 24.0802 53.4711 24.4101L54.6703 23.7136C55.2359 23.385 55.588 22.6845 55.5907 21.6908L55.5894 14.866Z" fill="#D8D3CC"/>
<path d="M54.39 15.5638L54.3913 22.3874C54.3861 24.3891 52.9695 25.1969 51.227 24.1914C49.487 23.1873 48.0796 20.7482 48.0849 18.7465L48.077 11.9189L54.39 15.5638Z" fill="#C5C0B6"/>
<path d="M56.0029 19.9537C55.7594 19.7914 55.5604 19.6997 55.6363 19.1865C55.5604 19.0386 55.4805 18.8919 55.3994 18.7466C55.1074 18.6746 54.9373 18.5267 54.9805 18.0475C54.8914 17.9087 54.8011 17.7726 54.7081 17.6364C54.4581 17.5854 54.2329 17.5055 54.2329 16.9884C54.1321 16.8588 54.0286 16.7305 53.9226 16.6048C53.8624 16.5328 53.467 16.6048 53.3871 16.0078C53.2811 15.8965 53.1737 15.7891 53.0651 15.6831C52.8477 15.721 52.5152 15.5914 52.4903 15.1633C52.3725 15.0651 52.2547 14.9696 52.1342 14.8779C51.8894 14.8976 51.7074 14.874 51.6315 14.5153C51.5189 14.4433 51.405 14.3739 51.2911 14.3071C51.1916 14.3569 50.9389 14.3045 50.8865 14.078C50.7596 14.0112 50.6326 13.951 50.5082 13.896C50.3393 13.9968 50.0015 13.9968 49.9138 13.6669C49.7986 13.6289 49.6729 13.5949 49.5603 13.5661C49.4268 13.6211 49.1728 13.7245 49.0078 13.4653C48.8952 13.4522 48.784 13.4444 48.6753 13.4404C48.5339 13.536 48.3205 13.5897 48.1673 13.4614C48.0639 13.4731 47.9631 13.4902 47.8649 13.5111C47.8047 13.6145 47.5795 13.7415 47.408 13.6486C47.3543 13.6695 47.1828 13.752 46.9969 13.8725C46.883 13.9458 46.7652 14.0531 46.6657 14.1081C46.5203 14.1893 46.43 14.1788 46.43 14.1788L43.4961 15.8794L51.7808 30.1354L55.3104 28.0878C55.639 27.8967 55.9283 27.6387 56.1718 27.318C56.1561 27.2054 56.2373 27.0457 56.4468 26.8899C56.4991 26.7943 56.5476 26.6961 56.5921 26.5927C56.5921 26.5024 56.5463 26.2785 56.7845 26.0651C56.8186 25.9499 56.8487 25.8308 56.8762 25.7077C56.8291 25.5624 56.7662 25.3987 56.977 25.0858C56.9914 24.9523 57.0018 24.8148 57.0084 24.6734C56.9154 24.553 56.8015 24.2977 57.0097 23.9638C57.0032 23.8146 56.9927 23.6653 56.9796 23.5147C56.7989 23.3498 56.706 23.1325 56.8801 22.7777C56.8539 22.6245 56.8238 22.4713 56.7898 22.3181C56.5724 22.1859 56.4428 21.9372 56.5999 21.5706C56.5554 21.4161 56.507 21.2616 56.4559 21.1071C56.2124 21.005 56.0383 20.6698 56.1836 20.3661C56.1234 20.2326 56.0644 20.0925 56.0029 19.9537Z" fill="#353433"/>
<path d="M47.6545 16.2905C47.5209 16.3533 47.3272 16.3534 47.2552 16.0758C47.1321 16.0143 47.009 15.958 46.8886 15.9056C46.7642 16.0797 46.416 15.9907 46.3675 15.7105C46.2458 15.6712 46.1266 15.6385 46.0088 15.6097C45.8857 15.7524 45.5872 15.7734 45.4969 15.5168C45.3751 15.5024 45.2547 15.4932 45.1355 15.4893C45.036 15.6097 44.7978 15.7263 44.6368 15.5102C44.5307 15.522 44.426 15.5403 44.3252 15.5626C44.2244 15.6568 44.0738 15.7603 43.9245 15.6804C42.6258 16.1648 41.7958 17.55 41.7892 19.6342C41.7787 23.3458 44.388 27.8665 47.6178 29.7308C49.7479 30.9602 51.6148 30.7284 52.6439 29.3643C52.6439 29.3643 52.6569 29.1089 52.89 28.9885C52.9476 28.8877 53.0013 28.7817 53.0497 28.6704C53.0497 28.6704 53.0039 28.3352 53.2395 28.1637C53.2788 28.038 53.3129 27.9071 53.343 27.7723C53.2998 27.6741 53.2395 27.4227 53.4438 27.1635C53.4595 27.0286 53.47 26.8911 53.4778 26.7484C53.3076 26.6306 53.233 26.247 53.4817 26.048C53.4765 25.9053 53.4673 25.7613 53.4542 25.6173C53.2369 25.4628 53.1099 25.1656 53.3548 24.8553C53.3299 24.7061 53.3011 24.5568 53.2683 24.4063C53.106 24.4023 52.8167 23.9703 53.0798 23.6574C53.0353 23.5029 52.9882 23.3471 52.9358 23.1926C52.5627 23.0264 52.5993 22.6009 52.6635 22.4464C52.6033 22.2945 52.5391 22.1427 52.4723 21.9921C52.2079 21.8926 52.0364 21.6871 52.1307 21.276C52.0469 21.1123 51.9696 20.9696 51.8911 20.8282C51.7012 20.8269 51.3307 20.5258 51.4761 20.1317C51.3857 19.9903 51.2941 19.8502 51.1998 19.7128C50.8935 19.7141 50.6931 19.3645 50.735 19.0752C50.6329 18.943 50.5282 18.8133 50.4221 18.685C49.939 18.6994 49.9141 18.1129 49.9141 18.1129C49.7989 17.9899 49.6811 17.8707 49.562 17.7555C49.3512 17.8 49.0174 17.7254 49.003 17.2462C48.8812 17.1428 48.7581 17.0433 48.6337 16.9477C48.3798 17.0066 48.0603 16.9648 48.0381 16.5249C47.9111 16.4424 47.7828 16.3651 47.6545 16.2905Z" fill="#232221"/>
<path d="M47.8241 13.5463C47.9629 13.4913 48.0637 13.4756 48.1671 13.4638C47.8071 13.8238 47.5806 14.1918 47.6382 14.3148C47.4745 14.3829 47.3122 14.4523 47.1486 14.5217C47.0595 14.3331 47.3371 13.9626 47.8241 13.5463ZM53.7587 20.2534C53.9106 20.2285 54.0612 20.2049 54.2117 20.18C54.2261 19.7781 54.5639 18.9258 54.9815 18.0513C54.8925 17.9112 54.8008 17.7737 54.7066 17.6376C54.107 18.7072 53.7705 19.7755 53.7574 20.252L53.7587 20.2534ZM54.3046 21.4316C54.4513 21.4081 54.5966 21.3858 54.7433 21.3623C54.7865 20.9761 55.1792 20.078 55.6374 19.1851C55.5615 19.0371 55.4816 18.8905 55.4005 18.7451C54.7576 19.8396 54.3531 20.9381 54.3046 21.4316ZM52.3487 18.0591C52.5084 18.029 52.6682 17.9989 52.8279 17.9701C52.7925 17.6088 53.0452 16.8233 53.3961 16.0181C53.2848 15.9016 53.1735 15.789 53.0596 15.679C52.5294 16.6609 52.3029 17.6323 52.3487 18.0591ZM48.0571 14.7141C48.2221 14.6539 48.3883 14.5937 48.5546 14.5335C48.4839 14.3659 48.679 13.9037 49.0076 13.4678C48.895 13.4547 48.7837 13.4468 48.6751 13.4429C48.1894 13.9836 47.9419 14.4457 48.0571 14.7141ZM51.5121 17.0929C51.6758 17.0589 51.8381 17.0248 52.0018 16.9908C51.9468 16.6583 52.1667 15.9199 52.4901 15.1645C52.371 15.065 52.2505 14.9681 52.1288 14.8751C51.626 15.7968 51.4427 16.7015 51.5121 17.0929ZM54.7262 22.6361C54.8663 22.6139 55.0077 22.5916 55.1478 22.568C55.2237 22.1766 55.6767 21.2667 56.1794 20.3686C56.1179 20.2154 56.0538 20.0635 55.9857 19.913C55.3795 20.8831 54.8598 21.8873 54.7262 22.6361ZM49.0233 15.1121C49.1909 15.0597 49.3585 15.0087 49.5261 14.9576C49.4488 14.7508 49.6164 14.1839 49.9188 13.6694C49.7984 13.6301 49.6779 13.596 49.5601 13.5672C49.1084 14.2022 48.8898 14.7678 49.0233 15.1121ZM50.2448 15.4761C50.2448 15.4761 50.4543 14.5059 50.8863 14.0791C50.758 14.0124 50.6323 13.9522 50.5066 13.8959C50.0144 14.6264 49.8455 15.5703 49.8455 15.5703L50.2448 15.4761ZM50.7096 16.3087C50.8746 16.2681 51.0408 16.2289 51.2058 16.1883C51.1338 15.8898 51.3275 15.209 51.6313 14.5164C51.5187 14.4444 51.4048 14.375 51.2909 14.3083C51.2909 14.3083 50.5211 15.0977 50.7096 16.3087ZM53.1028 19.1209C53.2586 19.0934 53.4144 19.0672 53.5702 19.0397C53.5584 18.6548 53.8504 17.8313 54.2326 16.9869C54.1318 16.8573 54.0284 16.7303 53.9237 16.6059C53.3607 17.6389 53.0845 18.6653 53.1028 19.1209ZM53.9342 21.1908C54.0179 21.0546 54.103 20.9197 54.1868 20.7836C53.8386 20.7351 52.9758 20.7574 51.8905 20.8281C51.973 20.9747 52.0515 21.1227 52.1274 21.2719C52.1274 21.2719 52.8069 21.1528 53.9342 21.1908ZM53.2652 24.4009C53.2979 24.5554 53.328 24.7099 53.3542 24.8631C53.3542 24.8631 54.2366 24.7754 54.9043 24.7937C55.0129 24.6589 55.1216 24.5227 55.229 24.3865C54.9161 24.3381 54.0677 24.3708 53.2652 24.4009ZM53.4799 26.0466C53.4799 26.0466 54.3845 25.9602 54.9265 25.9445L55.229 25.5792C54.7721 25.5556 54.2471 25.5766 53.4498 25.5962C53.4642 25.7468 53.4733 25.8974 53.4799 26.0466ZM55.1164 26.15C55.2381 26.1212 55.3586 26.0911 55.479 26.0623C55.6584 25.7285 56.3928 24.7688 57.0082 23.9689C57.0016 23.821 56.9912 23.6704 56.9768 23.5198C56.5015 24.1116 55.7474 24.9285 55.1164 26.15ZM54.395 22.39C54.4866 22.2525 54.5783 22.1163 54.6686 21.9789C54.2156 21.9121 53.4497 21.882 52.4718 21.9946C52.5385 22.1465 52.6027 22.2996 52.6642 22.4528C52.6642 22.4528 53.5859 22.3612 54.395 22.39ZM53.4759 26.7496C53.4681 26.891 53.4576 27.0298 53.4419 27.1634C53.4419 27.1634 54.2039 27.0403 54.7864 26.9696L55.1151 26.6004C54.7642 26.6239 54.247 26.6763 53.4759 26.7496ZM55.0103 23.8419C55.1452 23.8196 55.28 23.7974 55.4149 23.7751C55.5275 23.3811 56.0498 22.4659 56.5984 21.5757C56.5539 21.4212 56.5055 21.268 56.4544 21.1135C55.805 22.0797 55.2145 23.0878 55.0103 23.8419ZM55.1439 25.028C55.2722 25.0032 55.3992 24.9796 55.5275 24.9547C55.682 24.562 56.2816 23.6521 56.8773 22.7814C56.8511 22.6283 56.821 22.4751 56.7869 22.3219C56.0983 23.2632 55.428 24.2713 55.1439 25.0254V25.028ZM52.9352 23.1925C52.9863 23.347 53.0347 23.5028 53.0793 23.6586C53.0793 23.6586 53.8373 23.5774 54.7236 23.5984C54.8231 23.4622 54.9226 23.3261 55.0221 23.1886C54.3767 23.131 53.7404 23.1441 52.9352 23.1925ZM53.9551 28.5995C54.0991 28.4961 54.2418 28.3914 54.3845 28.2853C54.1462 28.3102 53.0544 28.6585 53.0544 28.6585C53.0085 28.7606 52.9601 28.8601 52.9077 28.9543C52.9077 28.9543 53.5231 28.7082 53.9551 28.5995ZM53.3398 27.7813C53.3123 27.903 53.2822 28.0222 53.2468 28.1374C53.2468 28.1374 53.959 27.9554 54.4971 27.8441C54.6333 27.7302 54.7354 27.6164 54.8702 27.5025C54.501 27.5588 53.9276 27.6792 53.3398 27.7813ZM52.0856 29.9323C52.0083 29.9925 51.9284 30.0476 51.846 30.0986C51.9442 30.0436 52.5385 29.698 52.5385 29.698C52.3932 29.7779 52.3382 29.8053 52.0856 29.9323ZM53.3529 20.0243C53.4301 19.8907 53.5087 19.7585 53.5859 19.625C53.163 19.5752 52.3422 19.5503 51.2006 19.7179C51.2948 19.8554 51.3877 19.9955 51.4781 20.1382C51.4781 20.1382 52.2427 19.9928 53.3529 20.0243ZM52.8816 18.5252C52.5857 18.4388 51.2581 18.5121 50.4203 18.6862C50.5263 18.8132 50.6297 18.9415 50.7305 19.0724C50.7305 19.0724 51.8303 18.9285 52.6655 18.9127C52.7389 18.7831 52.8109 18.6535 52.8816 18.5252ZM54.1318 28.6166C54.234 28.5681 54.3374 28.5197 54.4408 28.4699C55.0116 28.0117 55.8796 27.3558 56.4452 26.8924C56.4976 26.7968 56.546 26.6986 56.5905 26.5965C55.8639 27.2026 54.8545 28.0143 54.1318 28.6166ZM54.5966 27.9541C54.7053 27.9135 54.8139 27.8703 54.9226 27.8284C55.4411 27.2825 56.2423 26.5873 56.783 26.0702C56.817 25.9549 56.8471 25.8358 56.8746 25.7128C56.5211 26.0505 55.9085 26.5192 54.5966 27.9541ZM46.3093 14.5269C46.4691 14.4497 46.6301 14.3724 46.7898 14.2952C46.7492 14.2153 47.0111 13.9364 47.4091 13.6497C47.3174 13.6851 47.2284 13.727 47.142 13.7715C46.5646 14.1341 46.2491 14.4091 46.3093 14.5269ZM51.8866 17.8785C51.99 17.6821 51.99 17.6821 52.0869 17.5067C51.7779 17.4373 50.4922 17.5551 49.5601 17.7554C49.6753 17.868 49.7879 17.9819 49.9005 18.101C49.9005 18.101 50.8431 17.8745 51.8866 17.8785ZM54.9292 27.128C55.0431 27.094 55.1583 27.0586 55.2722 27.022C55.5144 26.6881 56.3287 25.8122 56.9741 25.0896C56.9885 24.9547 56.999 24.8173 57.0069 24.6759C56.5866 25.1407 55.7762 25.9104 54.9292 27.128ZM46.8658 14.4235C46.291 14.6434 45.1075 15.1121 44.3246 15.5625C44.4215 15.5415 44.521 15.5245 44.6231 15.5127C44.8797 15.4027 45.6639 15.0401 46.5725 14.65C46.5725 14.65 46.5725 14.6486 46.8658 14.4235ZM49.3362 15.5703L49.509 15.2849C49.509 15.2849 48.1658 15.4774 46.8906 15.9015C47.0137 15.9565 47.1381 16.0155 47.2637 16.0796C47.2637 16.0796 48.3766 15.7536 49.3362 15.5703ZM50.0969 16.1333C50.1558 16.0246 50.2147 15.9146 50.2749 15.806C49.0233 15.8361 47.6591 16.2878 47.6552 16.2904C47.7835 16.3637 47.9105 16.4423 48.0362 16.5247C48.0362 16.5247 48.9408 16.2105 50.0969 16.1333ZM51.0238 16.9424C51.0866 16.8246 51.1495 16.708 51.2123 16.5902C50.7986 16.5967 49.5876 16.6962 48.6332 16.9463C48.7562 17.0406 48.8767 17.1388 48.9971 17.2409C48.9971 17.2409 50.0223 16.9738 51.0238 16.9424ZM48.5062 15.0938C48.5638 15.0022 48.6227 14.9105 48.6816 14.8202C48.1998 14.8856 47.0399 15.2378 46.0161 15.6122C46.1326 15.641 46.2504 15.6738 46.3696 15.7117C46.3696 15.7117 47.6081 15.3085 48.5062 15.0938ZM47.557 14.7586C47.557 14.7586 47.6801 14.6002 47.7429 14.5203C47.4261 14.5832 46.1234 15.0322 45.1337 15.4891C45.241 15.4918 45.351 15.4997 45.461 15.5114C45.7255 15.4224 46.7518 15.0165 47.557 14.7586Z" fill="#3D3C3B"/>
<path d="M47.6422 18.5712C49.7513 19.8424 51.418 22.8444 51.3643 25.2756C51.3106 27.7068 49.5589 28.6469 47.4498 27.3756C45.3406 26.1044 43.674 23.1024 43.7277 20.6712C43.7801 18.24 45.5331 17.3 47.6422 18.5712Z" fill="#7C1824"/>
<path d="M49.408 17.0209L43.0963 13.3774V14.8634L49.408 18.5082V17.0209Z" fill="#C5C0B6"/>
<path d="M55.5943 14.9365L49.4083 18.508V17.0207L55.5943 13.4492V14.9365Z" fill="#D8D3CC"/>
<path d="M49.408 17.0209L43.0963 13.3774L49.2823 9.80591L55.594 13.4494L49.408 17.0209Z" fill="#F0ECE6"/>
<path d="M49.4395 16.6651L43.7706 13.392V10.9294L50.1399 13.7966L49.4395 16.6651Z" fill="#232221"/>
<path d="M53.0399 14.5858L49.4396 16.6648V14.2009L53.0399 12.1218V14.5858Z" fill="#353433"/>
<path d="M49.4366 16.0322L43.1498 12.4031V4.76392L49.4366 8.39436V16.0322Z" fill="#C5C0B6"/>
<path d="M53.627 13.613L49.4363 16.0324V8.39452L53.627 5.9751V13.613Z" fill="#D8D3CC"/>
<path d="M49.4366 8.39457L43.1498 4.76413L47.3405 2.34473L53.6273 5.97515L49.4366 8.39457Z" fill="#F0ECE6"/>
<path d="M63.9099 17.4573C64.3365 16.7184 64.3367 15.9198 63.9102 15.6736C63.4838 15.4274 62.7923 15.8268 62.3657 16.5657C61.9391 17.3046 61.9389 18.1031 62.3654 18.3493C62.7918 18.5955 63.4833 18.1962 63.9099 17.4573Z" fill="#353433"/>
<path d="M63.9265 15.6684L52.556 9.10402C52.3583 8.98489 52.0821 9.00059 51.777 9.17602C51.1735 9.52427 50.6852 10.3713 50.6852 11.0678C50.6852 11.4122 50.8043 11.6557 50.9981 11.7709L62.3685 18.3352C62.1748 18.2187 62.0556 17.9765 62.0556 17.6322C62.0556 16.9357 62.5453 16.0886 63.1475 15.7404C63.4525 15.565 63.7288 15.5506 63.9265 15.6684Z" fill="#353433"/>
<path d="M78.4658 43.1078L58.6156 31.6471V13.7004L78.4658 25.1612V43.1078Z" fill="#C5C0B6"/>
<path d="M82.6568 40.6886L78.4661 43.108V25.1613L82.6568 22.7419V40.6886Z" fill="#D8D3CC"/>
<path d="M78.4661 25.1614L58.6158 13.7007L62.8066 11.2812L82.6568 22.742L78.4661 25.1614Z" fill="#F0ECE6"/>
<path d="M90.9724 34.3299C90.9724 35.0264 91.4621 35.3092 92.0643 34.961C92.6679 34.6127 93.1562 33.7657 93.1562 33.0692C93.1562 32.3727 92.6679 32.0899 92.0643 32.4381C91.4621 32.7864 90.9724 33.6334 90.9724 34.3299Z" fill="#353433"/>
<path d="M92.8451 32.3659L81.4746 25.8015C81.2769 25.6824 81.0007 25.6981 80.6957 25.8735C80.0921 26.2218 79.6038 27.0688 79.6038 27.7653C79.6038 28.1097 79.7229 28.3519 79.9167 28.4684L91.2871 35.0327C91.0934 34.9162 90.9742 34.674 90.9742 34.3297C90.9742 33.6332 91.4639 32.7861 92.0661 32.4379C92.3712 32.2612 92.6461 32.2468 92.8451 32.3659Z" fill="#353433"/>
<path d="M99.9444 40.4753L98.7452 41.1718L98.7465 47.9954C98.7439 48.9904 98.3931 49.6895 97.8262 50.0194L99.0254 49.323C99.5923 48.9943 99.9431 48.2939 99.9458 47.2989L99.9444 40.4753Z" fill="#D8D3CC"/>
<path d="M98.7446 41.1731L98.7459 47.9967C98.7406 49.9985 97.3241 50.8063 95.5815 49.8008C93.8416 48.7966 92.4342 46.3576 92.4394 44.3558L92.4329 37.5283L98.7446 41.1731Z" fill="#C5C0B6"/>
<path d="M100.36 45.5631C100.116 45.4008 99.9174 45.3091 99.9933 44.7959C99.9174 44.648 99.8375 44.5014 99.7563 44.356C99.4644 44.284 99.2942 44.1361 99.3374 43.6569C99.2484 43.5181 99.158 43.3807 99.0651 43.2458C98.8137 43.1948 98.5885 43.1149 98.5899 42.5978C98.489 42.4682 98.3856 42.3399 98.2796 42.2142C98.2193 42.1435 97.8239 42.2142 97.7441 41.6172C97.638 41.5059 97.5307 41.3985 97.422 41.2925C97.2047 41.3305 96.8721 41.2008 96.8473 40.7727C96.7294 40.6745 96.6116 40.579 96.4912 40.4873C96.2463 40.507 96.0644 40.4834 95.9885 40.1247C95.8759 40.0527 95.762 39.9833 95.6481 39.9165C95.5486 39.9663 95.2959 39.9139 95.2435 39.6874C95.1165 39.6206 94.9895 39.5604 94.8652 39.5054C94.6963 39.6062 94.3585 39.6062 94.2708 39.2763C94.1556 39.2383 94.0299 39.2043 93.9173 39.1755C93.7838 39.2292 93.5298 39.3339 93.3648 39.0747C93.2522 39.0616 93.1409 39.0537 93.0322 39.0498C92.8895 39.1454 92.6774 39.1991 92.5243 39.0708C92.4208 39.0826 92.32 39.0996 92.2219 39.1205C92.1616 39.224 91.9365 39.351 91.7649 39.258C91.7113 39.279 91.5398 39.3614 91.3539 39.4819C91.24 39.5552 91.1221 39.6625 91.0226 39.7175C90.8773 39.7987 90.787 39.7882 90.787 39.7882L87.853 41.4889L96.1377 55.7448L99.6673 53.6972C99.9959 53.5061 100.285 53.2482 100.529 52.9274C100.513 52.8148 100.594 52.6551 100.804 52.4993C100.856 52.4037 100.905 52.3055 100.949 52.2021C100.949 52.1118 100.903 51.8879 101.141 51.6745C101.176 51.5593 101.206 51.4402 101.233 51.3171C101.186 51.1718 101.124 51.0081 101.334 50.6952C101.348 50.5617 101.359 50.4242 101.365 50.2828C101.272 50.1624 101.159 49.9071 101.367 49.5732C101.36 49.424 101.35 49.2747 101.337 49.1242C101.156 48.9592 101.063 48.7419 101.237 48.3871C101.211 48.2339 101.181 48.0807 101.147 47.9275C100.929 47.7953 100.8 47.5466 100.957 47.18C100.912 47.0255 100.864 46.871 100.813 46.7165C100.569 46.6144 100.395 46.2793 100.541 45.9755C100.48 45.8407 100.421 45.7019 100.36 45.5631Z" fill="#353433"/>
<path d="M92.0115 41.8999C91.878 41.9627 91.6842 41.9627 91.6122 41.6852C91.4891 41.6236 91.3661 41.5674 91.2456 41.515C91.1212 41.6891 90.773 41.6001 90.7245 41.3199C90.6028 41.2806 90.4837 41.2479 90.3658 41.2191C90.2428 41.3618 89.943 41.3827 89.8539 41.1261C89.7322 41.1117 89.6117 41.1026 89.4926 41.0986C89.3931 41.2178 89.1548 41.3356 88.9938 41.1196C88.8877 41.1314 88.783 41.1497 88.6822 41.1719C88.5814 41.2662 88.4308 41.3696 88.2816 41.2898C86.9828 41.7742 86.1528 43.1607 86.1463 45.2436C86.1358 48.9552 88.745 53.4759 91.9749 55.3402C94.1049 56.5696 95.9718 56.3378 97.0009 54.9736C97.0009 54.9736 97.014 54.7183 97.247 54.5979C97.3046 54.4971 97.3583 54.391 97.4081 54.2798C97.4081 54.2798 97.3622 53.9446 97.5979 53.7731C97.6371 53.6474 97.6712 53.5165 97.7013 53.3816C97.6581 53.2834 97.5979 53.0321 97.8021 52.7729C97.8178 52.638 97.8283 52.5005 97.8362 52.3578C97.666 52.24 97.5914 51.8564 97.8401 51.6574C97.8349 51.5147 97.8257 51.3707 97.8126 51.2267C97.5953 51.0722 97.4683 50.7763 97.7131 50.4647C97.6882 50.3155 97.6594 50.1662 97.6267 50.0156C97.4643 50.0117 97.175 49.5797 97.4382 49.2668C97.3937 49.1123 97.3452 48.9565 97.2941 48.802C96.921 48.6357 96.9577 48.2102 97.0219 48.0557C96.9616 47.9039 96.8974 47.752 96.8307 47.6015C96.5662 47.502 96.3947 47.2964 96.489 46.8853C96.4052 46.7217 96.3279 46.579 96.2494 46.4376C96.0596 46.4363 95.6891 46.1352 95.8344 45.7411C95.7441 45.5997 95.6524 45.4596 95.5581 45.3221C95.2518 45.3235 95.0515 44.9739 95.0934 44.6846C94.9912 44.5523 94.8865 44.4227 94.7805 44.2944C94.2974 44.3101 94.2725 43.7223 94.2725 43.7223C94.1573 43.5992 94.0395 43.4801 93.9203 43.3649C93.7095 43.4094 93.3757 43.3348 93.3613 42.8556C93.2395 42.7522 93.1165 42.6527 92.9921 42.5571C92.7381 42.616 92.4187 42.5741 92.3964 42.1342C92.2668 42.0518 92.1398 41.9745 92.0115 41.8999Z" fill="#232221"/>
<path d="M92.1785 39.1557C92.3172 39.1007 92.4194 39.085 92.5215 39.0732C92.1614 39.4332 91.935 39.8011 91.9926 39.9242C91.8289 39.9922 91.6665 40.0617 91.5029 40.131C91.4139 39.9425 91.6928 39.572 92.1785 39.1557ZM98.1144 45.8627C98.265 45.8379 98.4168 45.8143 98.5674 45.7894C98.5818 45.3875 98.9196 44.5352 99.3372 43.6606C99.2482 43.5206 99.1565 43.3831 99.0623 43.2456C98.4627 44.3166 98.1275 45.3836 98.1144 45.8627ZM98.659 47.041C98.8056 47.0174 98.951 46.9952 99.0976 46.9716C99.1408 46.5854 99.5336 45.6873 99.9918 44.7944C99.9159 44.6465 99.836 44.4998 99.7548 44.3545C99.112 45.4477 98.7088 46.5462 98.659 47.0384V47.041ZM96.7044 43.6685C96.8641 43.6384 97.0238 43.6083 97.1836 43.5795C97.1482 43.2182 97.4009 42.4326 97.7517 41.6275C97.6405 41.5109 97.5292 41.3984 97.414 41.2884C96.8851 42.2703 96.6573 43.243 96.7044 43.6685ZM92.4128 40.3235C92.5778 40.2633 92.744 40.203 92.9103 40.1428C92.8396 39.9752 93.0347 39.5131 93.3633 39.0771C93.2507 39.064 93.1394 39.0562 93.0308 39.0522C92.545 39.5929 92.2976 40.0551 92.4128 40.3235ZM95.8665 42.7023C96.0301 42.6683 96.1925 42.6342 96.3561 42.6002C96.3011 42.2676 96.5198 41.5293 96.8445 40.7739C96.7253 40.6744 96.6049 40.5775 96.4831 40.4845C95.9817 41.4062 95.7971 42.3109 95.8665 42.7023ZM99.0806 48.2455C99.222 48.2232 99.3621 48.201 99.5022 48.1774C99.5781 47.786 100.031 46.8761 100.534 45.978C100.472 45.8248 100.408 45.6729 100.34 45.5223C99.7352 46.4924 99.2155 47.4966 99.0806 48.2455ZM93.3777 40.7215C93.5453 40.6691 93.7128 40.6181 93.8804 40.567C93.8019 40.3602 93.9708 39.7933 94.2732 39.2787C94.1528 39.2395 94.0323 39.2054 93.9145 39.1766C93.4641 39.8116 93.2455 40.3772 93.3777 40.7215ZM94.6005 41.0855C94.6005 41.0855 94.81 40.1166 95.242 39.6885C95.1137 39.6217 94.988 39.5615 94.8623 39.5052C94.3701 40.2358 94.2012 41.1797 94.2012 41.1797L94.6005 41.0855ZM95.0653 41.9181C95.2302 41.8775 95.3965 41.8382 95.5614 41.7976C95.4894 41.4991 95.6832 40.8184 95.9869 40.1258C95.8744 40.0538 95.7604 39.9844 95.6465 39.9176C95.6465 39.9176 94.8754 40.7071 95.0653 41.9181ZM97.4585 44.7303C97.6143 44.7028 97.7701 44.6766 97.9259 44.6491C97.9141 44.2655 98.206 43.4407 98.5883 42.5963C98.4875 42.4667 98.3841 42.3396 98.2794 42.2153C97.7164 43.2495 97.4388 44.2747 97.4585 44.7303ZM98.2898 46.8001C98.3736 46.664 98.4587 46.5291 98.5425 46.393C98.1943 46.3445 97.3315 46.3668 96.2462 46.4375C96.3286 46.5841 96.4072 46.7321 96.4831 46.8813C96.4831 46.8813 97.1626 46.7622 98.2898 46.8001ZM97.6208 50.0103C97.6535 50.1648 97.6837 50.3193 97.7099 50.4724C97.7099 50.4724 98.5923 50.3847 99.26 50.403C99.3686 50.2682 99.4773 50.1321 99.5846 49.9959C99.2717 49.9475 98.4221 49.9802 97.6208 50.0103ZM97.8355 51.656C97.8355 51.656 98.7402 51.5696 99.2822 51.5539L99.5846 51.1886C99.1277 51.165 98.6027 51.1873 97.8054 51.2056C97.8198 51.3562 97.829 51.5067 97.8355 51.656ZM99.472 51.7594C99.5925 51.7306 99.7143 51.7005 99.8347 51.6717C100.014 51.3392 100.749 50.3782 101.363 49.5783C101.356 49.4303 101.346 49.2798 101.332 49.1292C100.856 49.721 100.102 50.5379 99.472 51.7594ZM98.7507 47.9993C98.8423 47.8632 98.934 47.7257 99.0243 47.5883C98.5713 47.5215 97.8054 47.4914 96.8275 47.604C96.8942 47.7559 96.9584 47.909 97.0199 48.0622C97.0199 48.0622 97.9416 47.9705 98.7507 47.9993ZM97.8316 52.359C97.8238 52.5004 97.8133 52.6392 97.7976 52.7727C97.7976 52.7727 98.5595 52.6497 99.1421 52.579L99.4707 52.2098C99.1199 52.2333 98.6027 52.2857 97.8316 52.359ZM99.366 49.4513C99.5008 49.429 99.6357 49.4068 99.7705 49.3845C99.8831 48.9904 100.406 48.0753 100.954 47.185C100.91 47.0306 100.861 46.8774 100.81 46.7229C100.159 47.6891 99.5702 48.6972 99.366 49.4513ZM99.4995 50.6374C99.6278 50.6138 99.7548 50.589 99.8831 50.5641C100.038 50.1713 100.637 49.2614 101.233 48.3908C101.207 48.2376 101.177 48.0858 101.143 47.9313C100.454 48.8726 99.7836 49.8807 99.4995 50.6348V50.6374ZM97.2896 48.8019C97.3407 48.9564 97.3891 49.1122 97.4336 49.268C97.4336 49.268 98.1929 49.1868 99.078 49.2077C99.1775 49.0716 99.277 48.9354 99.3765 48.798C98.7323 48.7404 98.0961 48.7535 97.2896 48.8019ZM98.3108 54.2089C98.4548 54.1055 98.5975 54.0008 98.7402 53.8947C98.5019 53.9196 97.4101 54.2679 97.4101 54.2679C97.3642 54.37 97.3158 54.4694 97.2634 54.5637C97.2634 54.5637 97.8787 54.3176 98.3108 54.2089ZM97.6955 53.3907C97.668 53.5124 97.6379 53.6316 97.6025 53.7468C97.6025 53.7468 98.3147 53.5648 98.8528 53.4535C98.9889 53.3396 99.0911 53.2257 99.2259 53.1118C98.8567 53.1681 98.282 53.2885 97.6955 53.3907ZM96.4412 55.5417C96.364 55.6019 96.2841 55.6569 96.2017 55.7079C96.2998 55.653 96.8942 55.3073 96.8942 55.3073C96.7489 55.3872 96.6939 55.4147 96.4412 55.5417ZM97.7086 45.6336C97.7858 45.5001 97.8643 45.3678 97.9416 45.2343C97.5187 45.1845 96.6978 45.1597 95.5562 45.3273C95.6505 45.4647 95.7434 45.6048 95.8338 45.7475C95.8338 45.7475 96.597 45.6035 97.7086 45.6336ZM97.2372 44.1346C96.9413 44.0482 95.6138 44.1215 94.7759 44.2956C94.882 44.4226 94.9854 44.5509 95.0862 44.6818C95.0862 44.6818 96.186 44.5378 97.0212 44.5221C97.0932 44.3925 97.1652 44.2629 97.2372 44.1346ZM98.4875 54.2259C98.5897 54.1775 98.6931 54.1291 98.7965 54.0793C99.3673 53.6224 100.235 52.9652 100.801 52.5017C100.853 52.4075 100.902 52.308 100.946 52.2058C100.22 52.812 99.2102 53.6237 98.4875 54.2259ZM98.9523 53.5635C99.0609 53.5229 99.1696 53.4797 99.2783 53.4378C99.7967 52.8919 100.598 52.1967 101.139 51.6795C101.173 51.5643 101.203 51.4452 101.23 51.3221C100.877 51.6599 100.264 52.1286 98.9523 53.5635ZM90.6637 40.135C90.8234 40.0577 90.9845 39.9805 91.1455 39.9032C91.1049 39.8234 91.3667 39.5445 91.7647 39.2591C91.6731 39.2944 91.5841 39.335 91.4977 39.3809C90.9203 39.7435 90.6048 40.0184 90.6637 40.135ZM96.2409 43.4878C96.3444 43.2915 96.3443 43.2915 96.4412 43.116C96.1336 43.0466 94.8466 43.1645 93.9145 43.3648C94.0297 43.4774 94.1423 43.5913 94.2549 43.7091C94.2549 43.7091 95.1975 43.4839 96.2409 43.4878ZM99.2848 52.7374C99.3987 52.7033 99.514 52.6667 99.6279 52.6313C99.8701 52.2975 100.686 51.4216 101.33 50.6989C101.344 50.5654 101.355 50.4266 101.361 50.2852C100.942 50.75 100.132 51.5198 99.2848 52.7374ZM91.2201 40.0328C90.6454 40.2515 89.4619 40.7215 88.679 41.1718C88.7758 41.1509 88.8753 41.1339 88.9774 41.1221C89.2341 41.0121 90.0182 40.6495 90.9268 40.2593C90.9268 40.2593 90.9282 40.258 91.2201 40.0328ZM93.6919 41.1797L93.8647 40.8943C93.8647 40.8943 92.5215 41.088 91.2463 41.5109C91.3694 41.5659 91.4938 41.6248 91.6194 41.689C91.6194 41.689 92.7323 41.363 93.6919 41.1797ZM94.4526 41.7427C94.5115 41.634 94.5704 41.524 94.6306 41.4154C93.379 41.4455 92.0148 41.8971 92.0109 41.8998C92.1392 41.9731 92.2662 42.0516 92.3919 42.1341C92.3919 42.1341 93.2965 41.8212 94.4526 41.7427ZM95.3794 42.5518C95.4423 42.4339 95.5051 42.3174 95.568 42.1996C95.1543 42.2061 93.9433 42.3056 92.9889 42.5557C93.1119 42.6499 93.2324 42.7481 93.3528 42.8503C93.3528 42.8503 94.3766 42.5832 95.3794 42.5518ZM92.8606 40.7031C92.9182 40.6115 92.9771 40.5199 93.036 40.4295C92.5555 40.495 91.3942 40.8472 90.3704 41.2216C90.487 41.2504 90.6048 41.2831 90.7239 41.3211C90.7239 41.3211 91.9638 40.9178 92.8606 40.7031ZM91.9114 40.368C91.9114 40.368 92.0344 40.2083 92.0973 40.1297C91.7805 40.1926 90.4778 40.6416 89.488 41.0985C89.5954 41.1011 89.7053 41.109 89.8153 41.1208C90.0811 41.0317 91.1075 40.6259 91.9114 40.368Z" fill="#3D3C3B"/>
<path d="M91.9956 44.1806C94.1047 45.4518 95.7714 48.4538 95.7177 50.885C95.664 53.3162 93.9123 54.2562 91.8032 52.985C89.694 51.7137 88.0274 48.7117 88.0811 46.2805C88.1348 43.8493 89.8878 42.9093 91.9956 44.1806Z" fill="#7C1824"/>
<path d="M93.7626 42.6303L87.4509 38.9868V40.4727L93.7626 44.1176V42.6303Z" fill="#C5C0B6"/>
<path d="M99.9505 40.5461L93.7632 44.1176V42.6303L99.9505 39.0588V40.5461Z" fill="#D8D3CC"/>
<path d="M93.7626 42.6303L87.4509 38.9868L93.6369 35.4153L99.95 39.0588L93.7626 42.6303Z" fill="#F0ECE6"/>
<path d="M93.7955 42.274L88.1279 39.001V36.5383L94.4959 39.4055L93.7955 42.274Z" fill="#232221"/>
<path d="M97.3975 40.1949L93.7959 42.2739V39.8113L97.3975 37.731V40.1949Z" fill="#353433"/>
<path d="M93.7934 41.6416L87.5066 38.0125V30.3733L93.7934 34.0037V41.6416Z" fill="#C5C0B6"/>
<path d="M97.9837 39.2224L93.793 41.6418V34.0039L97.9837 31.5845V39.2224Z" fill="#D8D3CC"/>
<path d="M93.7934 34.0039L87.5066 30.3735L91.696 27.9541L97.9842 31.5845L93.7934 34.0039Z" fill="#F0ECE6"/>
<path d="M42.4775 39.0612L22.6378 27.6069V36.0474L42.4775 47.5017V39.0612Z" fill="#C5C0B6"/>
<path d="M78.4588 26.7273L42.4779 47.5018V39.0613L78.4588 18.2869V26.7273Z" fill="#D8D3CC"/>
<path d="M42.4775 39.0613L22.6378 27.607L58.6201 6.83252L78.4584 18.2868L42.4775 39.0613Z" fill="#F0ECE6"/>
<path d="M14.6837 43.8085C14.4402 43.6462 14.2412 43.5545 14.3171 43.0413C14.2412 42.8934 14.1613 42.7468 14.0801 42.6014C13.7882 42.5294 13.618 42.3815 13.6612 41.9023C13.5722 41.7636 13.4818 41.6261 13.3889 41.4913C13.1388 41.4402 12.9136 41.3603 12.9136 40.8432C12.8128 40.7136 12.7094 40.5853 12.6034 40.4596C12.5431 40.3889 12.1478 40.4596 12.0679 39.8613C11.9619 39.75 11.8545 39.6426 11.7458 39.5366C11.5285 39.5746 11.1947 39.4449 11.1711 39.0168C11.0533 38.9186 10.9354 38.8231 10.815 38.7314C10.5715 38.7511 10.3895 38.7275 10.3122 38.3688C10.1997 38.2968 10.0857 38.2274 9.97184 38.1606C9.87234 38.2104 9.61968 38.158 9.56731 37.9315C9.44032 37.8648 9.31332 37.8045 9.18895 37.7495C9.02006 37.8503 8.68229 37.8503 8.59458 37.5204C8.47936 37.4824 8.35368 37.4484 8.24108 37.4196C8.10754 37.4733 7.85356 37.578 7.6886 37.3188C7.57601 37.3057 7.46472 37.2979 7.35475 37.2939C7.21335 37.3895 6.99995 37.4432 6.84678 37.3149C6.74335 37.3267 6.64256 37.3437 6.54437 37.3646C6.48414 37.4681 6.25896 37.5951 6.08745 37.5021C6.03509 37.5231 5.86226 37.6055 5.67635 37.726C5.56245 37.7993 5.44463 37.9066 5.34513 37.9616C5.19981 38.0428 5.10946 38.0323 5.10946 38.0323L2.17554 39.733L10.4602 53.9876L13.9898 51.94C14.3184 51.7489 14.6078 51.491 14.8513 51.1702C14.8356 51.0576 14.9167 50.8979 15.1262 50.7421C15.1786 50.6478 15.227 50.5483 15.2715 50.4449C15.2715 50.3546 15.2257 50.1307 15.464 49.9173C15.498 49.8021 15.5281 49.6829 15.5556 49.5599C15.5085 49.4146 15.447 49.2509 15.6564 48.938C15.6708 48.8045 15.6813 48.667 15.6879 48.5269C15.5949 48.4065 15.481 48.1512 15.6892 47.8173C15.6826 47.6681 15.6721 47.5188 15.6577 47.3683C15.4771 47.2033 15.3841 46.986 15.5595 46.6312C15.5334 46.478 15.5032 46.3248 15.4692 46.1716C15.2519 46.0394 15.1223 45.7907 15.2794 45.4241C15.2349 45.2696 15.1864 45.1151 15.1354 44.9606C14.8918 44.8585 14.7177 44.5234 14.8631 44.2196C14.8042 44.0874 14.7452 43.9473 14.6837 43.8085Z" fill="#353433"/>
<path d="M6.33664 40.1467C6.2031 40.2095 6.00804 40.2095 5.93734 39.932C5.81427 39.8704 5.69121 39.8141 5.57076 39.7618C5.44639 39.9359 5.09814 39.8469 5.04839 39.5667C4.92663 39.5288 4.80749 39.4947 4.68966 39.4659C4.5666 39.6086 4.26679 39.6296 4.17646 39.3729C4.0547 39.3585 3.93426 39.3494 3.81643 39.3455C3.71693 39.4659 3.47865 39.5824 3.31631 39.3664C3.21026 39.3782 3.10552 39.3965 3.00471 39.4188C2.9039 39.513 2.75334 39.6165 2.60409 39.5366C1.30536 40.021 0.475327 41.4061 0.468781 43.4904C0.458308 47.2007 3.06755 51.7227 6.29736 53.587C8.42744 54.8163 10.2944 54.5846 11.3234 53.2204C11.3234 53.2204 11.3365 52.9651 11.5695 52.8447C11.6271 52.7439 11.6808 52.6378 11.7293 52.5265C11.7293 52.5265 11.6834 52.1914 11.9191 52.0199C11.9584 51.8942 11.9924 51.7633 12.0225 51.6284C11.9793 51.5302 11.9191 51.2789 12.1233 51.0183C12.139 50.8835 12.1495 50.746 12.1574 50.6033C11.9872 50.4855 11.9126 50.1019 12.1613 49.9029C12.1561 49.7602 12.1469 49.6162 12.1338 49.4721C11.9165 49.3177 11.7895 49.0205 12.0343 48.7102C12.0094 48.5609 11.9793 48.4117 11.9479 48.2612C11.7855 48.2572 11.4962 47.8252 11.7594 47.5123C11.7149 47.3578 11.6664 47.202 11.6154 47.0475C11.2422 46.8812 11.2789 46.4557 11.3431 46.3013C11.2828 46.1494 11.2187 45.9975 11.1519 45.847C10.8874 45.7475 10.7159 45.5419 10.8102 45.1308C10.7264 44.9672 10.6492 44.8245 10.5706 44.6831C10.3808 44.6818 10.0103 44.3807 10.1556 43.9866C10.0653 43.8452 9.97362 43.7051 9.87936 43.5677C9.57301 43.569 9.37268 43.2194 9.41458 42.9288C9.31246 42.7965 9.20775 42.6669 9.1017 42.5386C8.6186 42.5543 8.59371 41.9665 8.59371 41.9665C8.4785 41.8434 8.36067 41.7243 8.24153 41.6091C8.03075 41.6536 7.6969 41.579 7.6825 41.0998C7.56074 40.9964 7.43768 40.8969 7.31331 40.8013C7.05932 40.8602 6.73987 40.8183 6.71762 40.3784C6.59193 40.2986 6.46494 40.22 6.33664 40.1467Z" fill="#232221"/>
<path d="M6.50476 37.4025C6.64354 37.3475 6.74434 37.3318 6.84777 37.32C6.48773 37.68 6.26125 38.0479 6.31886 38.171C6.15521 38.2391 5.99285 38.3084 5.8292 38.3778C5.74018 38.188 6.01774 37.8188 6.50476 37.4025ZM12.4407 44.1082C12.5913 44.0834 12.7431 44.0598 12.8937 44.0349C12.9081 43.633 13.2459 42.7807 13.6648 41.9061C13.5758 41.7661 13.4841 41.6286 13.3899 41.4911C12.7903 42.5608 12.4538 43.6291 12.4407 44.1056V44.1082ZM12.9854 45.2878C13.132 45.2643 13.2773 45.242 13.4239 45.2184C13.4671 44.8322 13.8599 43.9341 14.3181 43.0412C14.2422 42.8933 14.1636 42.7467 14.0811 42.6027C13.4383 43.6945 13.0338 44.793 12.9854 45.2878ZM11.0294 41.914C11.1891 41.8839 11.3488 41.8538 11.5085 41.825C11.4732 41.4637 11.7259 40.6781 12.0768 39.8729C11.9655 39.7564 11.8542 39.6439 11.7403 39.5339C11.21 40.5171 10.9835 41.4885 11.0294 41.914ZM6.73779 38.5703C6.90406 38.5101 7.06903 38.4498 7.2353 38.3896C7.1646 38.222 7.35968 37.7599 7.68829 37.3239C7.5757 37.3108 7.4644 37.303 7.35574 37.2991C6.87002 37.8385 6.62389 38.3019 6.73779 38.5703ZM10.1928 40.9478C10.3564 40.9138 10.5188 40.8797 10.6825 40.8457C10.6275 40.5132 10.8461 39.7748 11.1708 39.0194C11.0516 38.9199 10.9312 38.823 10.8094 38.73C10.3067 39.653 10.1234 40.5577 10.1928 40.9478ZM13.4069 46.491C13.547 46.4687 13.6884 46.4465 13.8285 46.4229C13.9044 46.0315 14.3574 45.1216 14.8601 44.2235C14.7986 44.0703 14.7344 43.9184 14.6664 43.7678C14.0602 44.738 13.5404 45.7421 13.4069 46.4897V46.491ZM7.704 38.9683C7.87157 38.9159 8.03915 38.8649 8.20803 38.8138C8.13079 38.6069 8.29837 38.04 8.6008 37.5255C8.48035 37.4863 8.3599 37.4523 8.24207 37.4234C7.7904 38.0584 7.57177 38.624 7.704 38.9683ZM8.92548 39.3322C8.92548 39.3322 9.13494 38.3621 9.56698 37.9353C9.43868 37.8686 9.31303 37.8083 9.18734 37.752C8.69508 38.4826 8.52619 39.4252 8.52619 39.4252L8.92548 39.3322ZM9.39155 40.1636C9.55651 40.123 9.72281 40.0837 9.88777 40.0431C9.81577 39.7446 10.0095 39.0639 10.3132 38.3713C10.2006 38.2993 10.0867 38.2299 9.97283 38.1631C9.97283 38.1631 9.20171 38.9526 9.39155 40.1636ZM11.7848 42.9771C11.9406 42.9496 12.0964 42.9234 12.2509 42.8959C12.2391 42.511 12.531 41.6875 12.9133 40.8431C12.8125 40.7135 12.7091 40.5865 12.6044 40.4621C12.0414 41.4951 11.7651 42.5215 11.7848 42.9771ZM12.6148 45.047C12.6986 44.9108 12.7837 44.7759 12.8675 44.6398C12.5192 44.5913 11.6565 44.6136 10.5711 44.6843C10.6536 44.8309 10.7322 44.9789 10.8081 45.1281C10.8081 45.1281 11.4876 45.0077 12.6148 45.047ZM11.9458 48.2571C11.9786 48.4116 12.0087 48.5661 12.0348 48.7193C12.0348 48.7193 12.9172 48.6315 13.5849 48.6499C13.6936 48.515 13.8023 48.3789 13.9096 48.2427C13.5981 48.1929 12.7484 48.2257 11.9458 48.2571ZM12.1605 49.9015C12.1605 49.9015 13.0652 49.815 13.6072 49.7993L13.9096 49.4341C13.4514 49.4105 12.9277 49.4328 12.1304 49.4511C12.1448 49.603 12.1553 49.7522 12.1605 49.9015ZM13.7971 50.0049C13.9175 49.9761 14.0393 49.946 14.1597 49.9172C14.3391 49.5847 15.0735 48.6237 15.6889 47.8238C15.6823 47.6758 15.6718 47.5253 15.6574 47.3747C15.1822 47.9665 14.4281 48.7847 13.7971 50.0049ZM13.0757 46.2462C13.1673 46.11 13.259 45.9725 13.3506 45.8351C12.8976 45.7683 12.1317 45.7382 11.1537 45.8508C11.2205 46.0027 11.286 46.1558 11.3462 46.309C11.3462 46.309 12.2666 46.2174 13.0757 46.2462ZM12.1579 50.6045C12.1514 50.7459 12.1396 50.8847 12.1239 51.0182C12.1239 51.0182 12.8858 50.8952 13.4684 50.8245L13.7971 50.4553C13.4449 50.4788 12.929 50.5312 12.1579 50.6045ZM13.691 47.6968C13.8259 47.6745 13.9607 47.6523 14.0955 47.63C14.2081 47.2359 14.7305 46.3208 15.2791 45.4306C15.2345 45.2761 15.1861 45.1229 15.1351 44.9684C14.4857 45.9359 13.8953 46.944 13.691 47.6968ZM13.8259 48.8842C13.9542 48.8594 14.0825 48.8358 14.2095 48.8109C14.3639 48.4182 14.9636 47.5082 15.5593 46.6389C15.5331 46.4857 15.503 46.3326 15.4689 46.1794C14.7803 47.1207 14.11 48.1275 13.8259 48.8842ZM11.6159 47.0474C11.667 47.2019 11.7154 47.3577 11.7599 47.5135C11.7599 47.5135 12.5192 47.4323 13.4043 47.4533C13.5038 47.3171 13.6033 47.181 13.7028 47.0435C13.0586 46.9859 12.4211 47.0003 11.6159 47.0474ZM12.6358 52.4544C12.7785 52.351 12.9225 52.2463 13.0652 52.1402C12.8269 52.1651 11.735 52.5134 11.735 52.5134C11.6892 52.6155 11.6408 52.715 11.5884 52.8092C11.5884 52.8092 12.2038 52.5631 12.6358 52.4544ZM12.0217 51.6362C11.9943 51.7592 11.9642 51.8771 11.9288 51.9923C11.9288 51.9923 12.641 51.8103 13.1791 51.699C13.3152 51.5851 13.4174 51.4712 13.5522 51.3573C13.1817 51.4149 12.6083 51.5354 12.0217 51.6362ZM10.7662 53.7885C10.689 53.8487 10.6091 53.9037 10.5266 53.9548C10.6248 53.8998 11.2192 53.5542 11.2192 53.5542C11.0752 53.6327 11.0189 53.6615 10.7662 53.7885ZM12.0348 43.8804C12.1121 43.7469 12.1907 43.6147 12.2679 43.4811C11.845 43.4314 11.0241 43.4065 9.8825 43.5741C9.97676 43.7116 10.0697 43.8516 10.1601 43.9943C10.1601 43.9943 10.9233 43.849 12.0348 43.8804ZM11.5636 42.3801C11.2677 42.2937 9.94013 42.367 9.10224 42.5411C9.20829 42.6681 9.31171 42.7964 9.41252 42.9273C9.41252 42.9273 10.5123 42.7833 11.3475 42.7676C11.4195 42.6393 11.4915 42.5097 11.5636 42.3801ZM12.8125 52.4728C12.9146 52.4243 13.018 52.3759 13.1215 52.3261C13.6923 51.8692 14.5603 51.212 15.1259 50.7485C15.1782 50.6543 15.2267 50.5548 15.2712 50.4527C14.5446 51.0588 13.5352 51.8705 12.8125 52.4728ZM13.2786 51.8103C13.3873 51.7697 13.4959 51.7265 13.6046 51.6846C14.123 51.1387 14.9243 50.4435 15.465 49.9264C15.499 49.8111 15.5291 49.692 15.5566 49.5689C15.2018 49.9067 14.5904 50.3741 13.2786 51.8103ZM4.99001 38.3818C5.14974 38.3045 5.31078 38.2273 5.4705 38.15C5.42991 38.0702 5.69174 37.7913 6.08974 37.5046C5.9981 37.5399 5.90908 37.5819 5.82267 37.6264C5.24662 37.989 4.9311 38.2653 4.99001 38.3818ZM10.5672 41.7333C10.6707 41.537 10.6707 41.537 10.7676 41.3615C10.4599 41.2921 9.17293 41.41 8.24078 41.6103C8.35599 41.7229 8.46857 41.8381 8.58116 41.9559C8.58116 41.9559 9.52379 41.7307 10.5672 41.7333ZM13.6111 50.9842C13.725 50.9501 13.8403 50.9135 13.9542 50.8781C14.1964 50.5443 15.012 49.6684 15.6561 48.9458C15.6705 48.8109 15.681 48.6734 15.6875 48.532C15.2686 48.9955 14.4569 49.7666 13.6111 50.9842ZM5.54643 38.2797C4.97169 38.4996 3.78815 38.9683 3.00525 39.4187C3.10213 39.3977 3.20165 39.3807 3.30376 39.3689C3.56168 39.2589 4.34457 38.8963 5.25447 38.5062C5.25447 38.5062 5.25317 38.5048 5.54643 38.2797ZM8.01689 39.4252L8.19101 39.1398C8.19101 39.1398 6.84777 39.3322 5.5726 39.7564C5.69567 39.8114 5.82005 39.8704 5.94573 39.9345C5.94573 39.9345 7.05725 39.6085 8.01689 39.4252ZM8.77885 39.9895C8.83777 39.8808 8.89666 39.7708 8.95689 39.6622C7.70529 39.6923 6.3411 40.144 6.33718 40.1466C6.46548 40.2199 6.59247 40.2984 6.71816 40.3809C6.71816 40.3809 7.62282 40.0667 8.77885 39.9895ZM9.70578 40.7985C9.76862 40.6807 9.83147 40.5642 9.89301 40.4464C9.4793 40.4529 8.26826 40.5525 7.31385 40.8038C7.43691 40.8981 7.55867 40.9962 7.67781 41.0984C7.67781 41.0984 8.70293 40.83 9.70578 40.7985ZM7.18685 38.9486C7.24446 38.857 7.30338 38.7654 7.36229 38.675C6.8805 38.7405 5.72055 39.0927 4.69675 39.4671C4.81327 39.4946 4.93111 39.5286 5.05024 39.5666C5.05024 39.5666 6.28874 39.1647 7.18685 38.9486ZM6.23769 38.6148C6.23769 38.6148 6.36075 38.4564 6.4236 38.3765C6.10677 38.4394 4.80411 38.8884 3.81435 39.3453C3.92171 39.348 4.03167 39.3558 4.14295 39.3689C4.4061 39.2786 5.43253 38.8727 6.23769 38.6148Z" fill="#3D3C3B"/>
<path d="M6.31997 42.4274C8.4291 43.6986 10.0957 46.7006 10.042 49.1318C9.98837 51.563 8.23664 52.5031 6.12751 51.2318C4.01838 49.9606 2.35176 46.9586 2.40544 44.5274C2.45911 42.0962 4.21084 41.1562 6.31997 42.4274Z" fill="#7C1824"/>
<path d="M8.45862 42.0776L7.25939 42.7741L7.26071 49.599C7.25809 50.594 6.90722 51.2931 6.34033 51.623L7.53957 50.9266C8.10514 50.598 8.45732 49.8975 8.45994 48.9038L8.45862 42.0776Z" fill="#D8D3CC"/>
<path d="M7.25903 42.7741L7.26034 49.599C7.25511 51.6008 5.83723 52.4086 4.09598 51.4031C2.35605 50.3989 0.948659 47.9599 0.953896 45.9581L0.946045 39.1306L7.25903 42.7741Z" fill="#C5C0B6"/>
<path d="M7.25797 41.3562L0.946289 37.7126V39.1986L7.25797 42.8421V41.3562Z" fill="#C5C0B6"/>
<path d="M13.4443 39.2706L7.2583 42.8421V41.3562L13.4443 37.7847V39.2706Z" fill="#D8D3CC"/>
<path d="M7.25797 41.3562L0.946289 37.7126L7.13228 34.1411L13.444 37.7847L7.25797 41.3562Z" fill="#F0ECE6"/>
<path d="M9.25424 39.865L3.58667 36.5933V34.1294L9.95595 36.9979L9.25424 39.865Z" fill="#232221"/>
<path d="M12.8561 37.7862L9.25452 39.8652V37.4026L12.8561 35.3223V37.7862Z" fill="#353433"/>
<path d="M9.25214 39.2327L2.96533 35.6036V27.9644L9.25214 31.5948V39.2327Z" fill="#C5C0B6"/>
<path d="M13.4426 36.8135L9.25183 39.2329V31.5949L13.4426 29.1755V36.8135Z" fill="#D8D3CC"/>
<path d="M9.25214 31.595L2.96533 27.9646L7.15611 25.5452L13.4429 29.1756L9.25214 31.595Z" fill="#F0ECE6"/>
<path d="M22.0479 40.7308C22.0479 41.4273 22.5375 41.7101 23.1397 41.3619C23.7433 41.0136 24.2316 40.1665 24.2316 39.47C24.2316 38.7735 23.742 38.4908 23.1397 38.839C22.5375 39.1873 22.0479 40.0343 22.0479 40.7308Z" fill="#353433"/>
<path d="M23.9205 38.767L12.5501 32.2027C12.3524 32.0835 12.0761 32.0992 11.7711 32.2747C11.1676 32.6229 10.6792 33.47 10.6792 34.1665C10.6792 34.5108 10.7984 34.7543 10.9921 34.8695L22.3626 41.4339C22.1688 41.3173 22.0497 41.0752 22.0497 40.7308C22.0497 40.0343 22.5393 39.1873 23.1416 38.839C23.4466 38.6636 23.7228 38.6492 23.9205 38.767Z" fill="#353433"/>
<path d="M38.2867 66.3048L18.4365 54.8453V36.8987L38.2867 48.3595V66.3048Z" fill="#C5C0B6"/>
<path d="M42.4776 63.8863L38.2869 66.3044V48.3591L42.4776 45.9397V63.8863Z" fill="#D8D3CC"/>
<path d="M38.2867 48.3592L18.4365 36.8984L22.6273 34.479L42.4775 45.9398L38.2867 48.3592Z" fill="#F0ECE6"/>
<path d="M50.9667 57.4269C50.9667 58.1234 51.4563 58.4061 52.0585 58.0579C52.6621 57.7096 53.1504 56.8626 53.1504 56.1661C53.1504 55.4696 52.6608 55.1868 52.0585 55.5351C51.4563 55.8846 50.9667 56.7304 50.9667 57.4269Z" fill="#353433"/>
<path d="M52.8394 55.4631L41.469 48.8987C41.2713 48.7796 40.995 48.7953 40.69 48.9707C40.0865 49.3189 39.5981 50.166 39.5981 50.8625C39.5981 51.2068 39.7173 51.449 39.911 51.5655L51.2815 58.1299C51.0877 58.0134 50.9686 57.7712 50.9686 57.4269C50.9686 56.7304 51.4582 55.8833 52.0605 55.5351C52.3655 55.3596 52.6404 55.3452 52.8394 55.4631Z" fill="#353433"/>
<path d="M59.0391 69.4181C58.7956 69.2558 58.5966 69.1641 58.6712 68.6509C58.5953 68.503 58.5154 68.3563 58.4343 68.211C58.1423 68.1403 57.9721 67.9911 58.0153 67.5119C57.9263 67.3731 57.836 67.2357 57.743 67.1008C57.493 67.0498 57.2678 66.9699 57.2678 66.4527C57.167 66.3231 57.0635 66.1948 56.9575 66.0691C56.8973 65.9984 56.5019 66.0691 56.422 65.4721C56.316 65.3609 56.2086 65.2535 56.1 65.1475C55.8826 65.1854 55.5488 65.0558 55.5252 64.6277C55.4074 64.5295 55.2896 64.4339 55.1691 64.3423C54.9256 64.3619 54.7423 64.3384 54.6664 63.9797C54.5538 63.9077 54.4399 63.8383 54.326 63.7715C54.2265 63.8213 53.9738 63.7689 53.9214 63.5424C53.7944 63.4769 53.6674 63.4154 53.5431 63.3604C53.3742 63.4612 53.0364 63.4612 52.9487 63.1313C52.8335 63.0933 52.7078 63.0593 52.5952 63.0305C52.4617 63.0842 52.2077 63.1889 52.0427 62.9297C51.9301 62.9166 51.8188 62.9087 51.7089 62.9048C51.5675 63.0004 51.3541 63.054 51.2009 62.9257C51.0975 62.9375 50.9967 62.9546 50.8985 62.9755C50.8383 63.0789 50.6131 63.2059 50.4416 63.1129C50.3892 63.1339 50.2164 63.2164 50.0305 63.3368C49.9166 63.4102 49.7987 63.5175 49.6992 63.5725C49.5539 63.6537 49.4636 63.6445 49.4636 63.6445L46.5297 65.3452L54.8143 79.6011L58.3439 77.5535C58.6725 77.3623 58.9619 77.1045 59.2054 76.7837C59.1897 76.6711 59.2709 76.5114 59.4803 76.3556C59.5327 76.26 59.5811 76.1618 59.6256 76.0597C59.6256 75.9694 59.5798 75.7455 59.8181 75.5321C59.8521 75.4169 59.8823 75.2977 59.9098 75.1747C59.8626 75.0294 59.8011 74.8657 60.0106 74.5528C60.025 74.4193 60.0354 74.2818 60.0433 74.1417C59.9503 74.0213 59.8364 73.766 60.0446 73.4321C60.0381 73.2829 60.0276 73.1336 60.0132 72.9831C59.8325 72.8181 59.7395 72.6008 59.9137 72.246C59.8875 72.0928 59.8574 71.9396 59.8233 71.7864C59.606 71.6542 59.4764 71.4055 59.6335 71.0389C59.589 70.8844 59.5405 70.7299 59.4895 70.5754C59.246 70.4733 59.0719 70.1381 59.2172 69.8344C59.1596 69.6969 59.1007 69.5569 59.0391 69.4181Z" fill="#353433"/>
<path d="M50.692 65.7561C50.5584 65.8189 50.3647 65.8189 50.2927 65.5414C50.1696 65.4798 50.0466 65.4235 49.9261 65.3712C49.8017 65.5453 49.4535 65.4563 49.4038 65.1761C49.282 65.1368 49.1628 65.1041 49.045 65.0753C48.9219 65.218 48.6221 65.2389 48.5318 64.9823C48.41 64.9679 48.2896 64.9588 48.1718 64.9548C48.0723 65.0753 47.834 65.1918 47.6717 64.9758C47.5656 64.9876 47.4609 65.0059 47.3601 65.0281C47.2593 65.1224 47.1087 65.2258 46.9595 65.146C45.6607 65.6304 44.8307 67.0155 44.8241 69.0998C44.8137 72.8114 47.4229 77.3321 50.6527 79.1977C52.7828 80.427 54.6497 80.1953 55.6788 78.8311C55.6788 78.8311 55.6919 78.5758 55.9249 78.4553C55.9825 78.3545 56.0362 78.2485 56.0859 78.1372C56.0859 78.1372 56.0401 77.8021 56.2758 77.6306C56.315 77.5049 56.3491 77.374 56.3792 77.2391C56.336 77.1409 56.2758 76.8896 56.48 76.6303C56.4957 76.4955 56.5062 76.3567 56.5141 76.2153C56.3439 76.0975 56.2692 75.7139 56.518 75.5149C56.5127 75.3722 56.5036 75.2282 56.4905 75.0842C56.2732 74.9297 56.1461 74.6325 56.391 74.3222C56.3661 74.173 56.336 74.0237 56.3046 73.8731C56.1422 73.8692 55.8529 73.4372 56.116 73.1243C56.0715 72.9698 56.0231 72.814 55.972 72.6595C55.5989 72.4932 55.6356 72.0678 55.6997 71.9133C55.6395 71.7614 55.5753 71.6095 55.5086 71.459C55.2441 71.3595 55.0726 71.1539 55.1668 70.7428C55.0831 70.5792 55.0058 70.4365 54.9273 70.2951C54.7375 70.2938 54.3669 69.9927 54.5122 69.5986C54.4219 69.4572 54.3303 69.3171 54.236 69.1796C53.9297 69.1809 53.7294 68.8314 53.7713 68.5407C53.6691 68.4085 53.5644 68.2789 53.4583 68.1506C52.9752 68.1663 52.9504 67.5785 52.9504 67.5785C52.8352 67.4567 52.7174 67.3363 52.5982 67.2211C52.3874 67.2656 52.0536 67.1909 52.0392 66.7118C51.9174 66.6083 51.7943 66.5088 51.67 66.4133C51.416 66.4722 51.0966 66.4316 51.0743 65.9904C50.946 65.9079 50.819 65.8294 50.692 65.7561Z" fill="#232221"/>
<path d="M50.8602 63.0121C50.999 62.9571 51.0998 62.9415 51.2032 62.9297C50.8432 63.2897 50.6167 63.6576 50.6743 63.7806C50.5107 63.8487 50.3483 63.9181 50.1847 63.9875C50.0943 63.7976 50.3732 63.4285 50.8602 63.0121ZM56.7948 69.7179C56.9454 69.693 57.0973 69.6695 57.2478 69.6446C57.2622 69.2427 57.6 68.3904 58.0176 67.5171C57.9286 67.377 57.837 67.2382 57.7427 67.1021C57.1431 68.1717 56.8079 69.24 56.7948 69.7179ZM57.3408 70.8975C57.4874 70.8739 57.6328 70.8517 57.7794 70.8281C57.8226 70.4419 58.2153 69.5438 58.6736 68.6509C58.5976 68.503 58.5191 68.3563 58.4366 68.211C57.7938 69.3042 57.3905 70.4026 57.3408 70.8949V70.8975ZM55.3848 67.5237C55.5446 67.4936 55.7043 67.4634 55.864 67.4346C55.8287 67.0733 56.0813 66.2878 56.4322 65.4826C56.3209 65.3661 56.2083 65.2535 56.0944 65.1435C55.5655 66.1267 55.339 67.0982 55.3848 67.5237ZM51.0932 64.1799C51.2582 64.1197 51.4245 64.0582 51.5907 63.9993C51.52 63.8317 51.7151 63.3695 52.0437 62.9336C51.9312 62.9205 51.8199 62.9126 51.7112 62.9087C51.2255 63.4481 50.978 63.9116 51.0932 64.1799ZM54.5482 66.5575C54.7119 66.5234 54.8742 66.4894 55.0379 66.4554C54.9816 66.1228 55.2016 65.3844 55.5262 64.629C55.4071 64.5295 55.2867 64.4326 55.1649 64.3397C54.6622 65.2627 54.4789 66.1673 54.5482 66.5575ZM57.7624 72.1007C57.9025 72.0784 58.0438 72.0561 58.1839 72.0326C58.2599 71.6411 58.7128 70.7312 59.2156 69.8331C59.154 69.6799 59.0899 69.5281 59.0218 69.3775C58.4156 70.3476 57.8959 71.3518 57.7624 72.1007ZM52.0581 64.578C52.2257 64.5256 52.3933 64.4745 52.5622 64.4235C52.4836 64.2166 52.6525 63.6497 52.9549 63.1352C52.8345 63.0959 52.7141 63.0619 52.5962 63.0331C52.1445 63.668 51.9259 64.2336 52.0581 64.578ZM53.281 64.9419C53.281 64.9419 53.4904 63.9718 53.9225 63.545C53.7941 63.4782 53.6685 63.418 53.5428 63.3617C53.0505 64.0922 52.8816 65.0349 52.8816 65.0349L53.281 64.9419ZM53.7457 65.7733C53.9107 65.7327 54.0769 65.6934 54.2419 65.6528C54.1699 65.3543 54.3637 64.6735 54.6674 63.9809C54.5548 63.9089 54.4409 63.8395 54.327 63.7728C54.327 63.7728 53.5559 64.5622 53.7457 65.7733ZM56.1389 68.5867C56.2947 68.5592 56.4505 68.533 56.605 68.5069C56.5932 68.122 56.8852 67.2985 57.2675 66.454C57.1667 66.3244 57.0632 66.1974 56.9585 66.0731C56.3969 67.1047 56.1206 68.1311 56.1389 68.5867ZM56.9703 70.6566C57.0541 70.5204 57.1392 70.3856 57.223 70.2494C56.8747 70.201 56.0119 70.2233 54.9266 70.294C55.0091 70.4406 55.0876 70.5885 55.1636 70.7378C55.1636 70.7378 55.8431 70.6173 56.9703 70.6566ZM56.3013 73.8668C56.334 74.0213 56.3641 74.1757 56.3903 74.3289C56.3903 74.3289 57.2727 74.2412 57.9404 74.2595C58.0491 74.1247 58.1577 73.9885 58.2651 73.8524C57.9522 73.8026 57.1038 73.8354 56.3013 73.8668ZM56.516 75.5111C56.516 75.5111 57.4206 75.4247 57.9627 75.409L58.2651 75.0437C57.8068 75.0202 57.2832 75.0424 56.4859 75.0608C56.5003 75.2126 56.5094 75.3619 56.516 75.5111ZM58.1525 75.6146C58.2729 75.5858 58.3947 75.5556 58.5151 75.5268C58.6945 75.1943 59.429 74.2333 60.043 73.4334C60.0364 73.2855 60.026 73.1349 60.0116 72.9844C59.5363 73.5761 58.7835 74.3944 58.1525 75.6146ZM57.4311 71.8558C57.5228 71.7184 57.6144 71.5822 57.706 71.4447C57.2531 71.378 56.4872 71.3479 55.5092 71.4604C55.576 71.6123 55.6414 71.7655 55.7017 71.9187C55.7017 71.9187 56.622 71.827 57.4311 71.8558ZM56.5121 76.2155C56.5055 76.3569 56.4937 76.4956 56.478 76.6292C56.478 76.6292 57.24 76.5061 57.8226 76.4354L58.1512 76.0662C57.8003 76.0885 57.2832 76.1408 56.5121 76.2155ZM58.0464 73.3064C58.1813 73.2842 58.3161 73.2619 58.451 73.2397C58.5636 72.8456 59.086 71.9304 59.6345 71.0402C59.59 70.8857 59.5416 70.7325 59.4905 70.578C58.8411 71.5455 58.2507 72.5536 58.0464 73.3064ZM58.1813 74.4939C58.3096 74.4703 58.4366 74.4454 58.5649 74.4205C58.7194 74.0278 59.319 73.1179 59.9147 72.2473C59.8885 72.0941 59.8584 71.9409 59.8243 71.7877C59.1357 72.7304 58.4654 73.7371 58.1813 74.4939ZM55.97 72.6571C56.0211 72.8115 56.0696 72.9673 56.1141 73.1231C56.1141 73.1231 56.8721 73.042 57.7584 73.0629C57.8579 72.9268 57.9574 72.7906 58.0569 72.6531C57.4128 72.5955 56.7765 72.6099 55.97 72.6571ZM56.9912 78.0641C57.1339 77.9607 57.2779 77.8559 57.4206 77.7512C57.1824 77.776 56.0905 78.1243 56.0905 78.1243C56.0447 78.2264 55.9962 78.3259 55.9439 78.4202C55.9439 78.4202 56.5592 78.1728 56.9912 78.0641ZM56.3759 77.2458C56.3484 77.3689 56.3183 77.4867 56.283 77.6019C56.283 77.6019 56.9952 77.42 57.5332 77.3087C57.6694 77.1948 57.7715 77.0809 57.9064 76.967C57.5372 77.0246 56.9637 77.145 56.3759 77.2458ZM55.1217 79.3981C55.0444 79.4584 54.9646 79.5134 54.8821 79.5644C54.9803 79.5081 55.5747 79.1625 55.5747 79.1625C55.4293 79.2424 55.3743 79.2712 55.1217 79.3981ZM56.389 69.4901C56.4662 69.3565 56.5448 69.2243 56.622 69.0908C56.1992 69.041 55.3783 69.0161 54.2366 69.1837C54.3309 69.3212 54.4239 69.4626 54.5129 69.604C54.5129 69.604 55.2788 69.4587 56.389 69.4901ZM55.9177 67.9897C55.6218 67.9033 54.2943 67.9767 53.4564 68.1508C53.5624 68.2765 53.6659 68.4061 53.7667 68.537C53.7667 68.537 54.8664 68.393 55.7017 68.3772C55.775 68.2489 55.8457 68.1193 55.9177 67.9897ZM57.168 78.0824C57.2701 78.034 57.3735 77.9855 57.4769 77.9358C58.0478 77.4776 58.9158 76.8216 59.4813 76.3582C59.5324 76.2639 59.5821 76.1644 59.6267 76.0623C58.9 76.6685 57.8907 77.4802 57.168 78.0824ZM57.6327 77.42C57.7414 77.3794 57.8501 77.3361 57.9587 77.2929C58.4772 76.747 59.2784 76.0518 59.8191 75.5347C59.8532 75.4195 59.8833 75.3003 59.9108 75.1773C59.5573 75.5164 58.9445 75.9838 57.6327 77.42ZM49.3441 63.9914C49.5039 63.9142 49.6649 63.837 49.8246 63.7597C49.784 63.6798 50.0459 63.401 50.4439 63.1143C50.3522 63.1509 50.2632 63.1902 50.1768 63.236C49.6008 63.5986 49.2852 63.8749 49.3441 63.9914ZM54.9227 67.343C55.0261 67.1466 55.0261 67.1466 55.123 66.9712C54.814 66.9018 53.5284 67.0196 52.5962 67.2199C52.7114 67.3325 52.824 67.4464 52.9366 67.5655C52.9366 67.5655 53.8793 67.3404 54.9227 67.343ZM57.9653 76.5938C58.0792 76.5598 58.1944 76.5231 58.3083 76.4878C58.5505 76.1539 59.3661 75.2781 60.0103 74.5554C60.0247 74.4206 60.0351 74.2831 60.0417 74.1417C59.6227 74.6065 58.8124 75.3763 57.9653 76.5938ZM49.9019 63.8893C49.3271 64.108 48.1436 64.578 47.3607 65.0283C47.4576 65.0074 47.5571 64.9904 47.6592 64.9786C47.9171 64.8686 48.7 64.506 49.6099 64.1158C49.6099 64.1158 49.6086 64.1145 49.9019 63.8893ZM52.3724 65.0349L52.5452 64.7494C52.5452 64.7494 51.2019 64.9419 49.9268 65.3661C50.0498 65.4211 50.1742 65.48 50.2999 65.5441C50.2999 65.5441 51.4127 65.2182 52.3724 65.0349ZM53.133 65.5991C53.1919 65.4905 53.2508 65.3805 53.311 65.2718C52.0594 65.302 50.6953 65.7536 50.6913 65.7562C50.8196 65.8296 50.9466 65.9081 51.0723 65.9906C51.0723 65.9906 51.977 65.6764 53.133 65.5991ZM54.0612 66.4082C54.1241 66.2904 54.1869 66.1739 54.2498 66.0561C53.8347 66.0626 52.625 66.1621 51.6706 66.4134C51.7937 66.5077 51.9155 66.6059 52.0346 66.708C52.0346 66.708 53.0584 66.4396 54.0612 66.4082ZM51.5423 64.5583C51.5999 64.4667 51.6588 64.375 51.7178 64.2847C51.2373 64.3502 50.076 64.7023 49.0522 65.0767C49.1687 65.1055 49.2865 65.1383 49.4057 65.1763C49.4057 65.1763 50.6442 64.7743 51.5423 64.5583ZM50.5918 64.2245C50.5918 64.2245 50.7149 64.0647 50.7777 63.9862C50.4609 64.049 49.1583 64.4981 48.1685 64.955C48.2759 64.9576 48.3858 64.9655 48.4971 64.9786C48.7615 64.8882 49.788 64.4824 50.5918 64.2245Z" fill="#3D3C3B"/>
<path d="M50.6776 68.037C52.7867 69.3082 54.4534 72.3103 54.3997 74.7415C54.346 77.1727 52.5943 78.1126 50.4852 76.8414C48.376 75.5702 46.7094 72.5682 46.7631 70.137C46.8155 67.7058 48.5685 66.7658 50.6776 68.037Z" fill="#7C1824"/>
<path d="M52.8152 67.687L51.616 68.3835L51.6173 75.2084C51.6147 76.2034 51.2638 76.9025 50.6969 77.2311L51.8961 76.5346C52.4617 76.206 52.8139 75.5056 52.8165 74.5106L52.8152 67.687Z" fill="#D8D3CC"/>
<path d="M51.6163 68.3836L51.6176 75.2085C51.6123 77.2103 50.1958 78.018 48.4532 77.0113C46.7133 76.0071 45.3059 73.5694 45.3111 71.5663L45.3046 64.7388L51.6163 68.3836Z" fill="#C5C0B6"/>
<path d="M51.6159 66.9658L45.3042 63.3223V64.8082L51.6159 68.4517V66.9658Z" fill="#C5C0B6"/>
<path d="M57.8022 64.88L51.6162 68.4515V66.9656L57.8022 63.394V64.88Z" fill="#D8D3CC"/>
<path d="M51.6159 66.9658L45.3042 63.3222L51.4902 59.7507L57.8019 63.3942L51.6159 66.9658Z" fill="#F0ECE6"/>
<path d="M53.611 65.4744L47.9421 62.2027V59.7388L54.3114 62.6073L53.611 65.4744Z" fill="#232221"/>
<path d="M57.2127 63.3956L53.6111 65.4746V63.012L57.2127 60.9316V63.3956Z" fill="#353433"/>
<path d="M53.6097 64.8421L47.3215 61.2129V53.5737L53.6097 57.2041V64.8421Z" fill="#C5C0B6"/>
<path d="M57.7987 62.4228L53.6093 64.8422V57.2043L57.7987 54.7849V62.4228Z" fill="#D8D3CC"/>
<path d="M53.6094 57.2044L47.3213 53.574L51.512 51.1545L57.7989 54.785L53.6094 57.2044Z" fill="#F0ECE6"/>
<path d="M26.8962 29.1244C26.7705 29.1244 26.6435 29.0917 26.5257 29.025L18.6142 24.4584L9.18137 24.6745V28.2695C9.18137 28.6819 8.84882 29.0132 8.43773 29.0132C8.02664 29.0132 7.69409 28.6806 7.69409 28.2695V23.9465C7.69409 23.542 8.01616 23.2108 8.42201 23.2029L18.7909 22.9646C18.9114 22.9633 19.0619 22.996 19.1798 23.0641L27.272 27.7354C27.6281 27.9409 27.7498 28.3965 27.5443 28.7513C27.4029 28.9909 27.1541 29.1244 26.8962 29.1244Z" fill="#353433"/>
<path d="M53.3519 13.8489C53.2262 13.8489 53.0992 13.8175 52.9814 13.7494L44.8892 9.07814C44.5606 8.8883 44.427 8.48245 44.5789 8.13551L47.9396 0.445219C48.081 0.123154 48.4253 -0.0536018 48.7749 0.014477C49.1205 0.0864833 49.3667 0.390228 49.3667 0.743714V5.06801C49.3667 5.4791 49.0341 5.81165 48.623 5.81165C48.2119 5.81165 47.8794 5.4791 47.8794 5.06801V4.30606L46.2115 8.1224L53.7263 12.4611C54.0837 12.6667 54.2042 13.1223 53.9987 13.4771C53.8599 13.7153 53.6111 13.8489 53.3519 13.8489Z" fill="#353433"/>
<path d="M45.9153 31.7026L28.3824 21.5798V25.3281L45.9153 35.4509V31.7026Z" fill="#C5C0B6"/>
<path d="M72.7247 19.9719L45.9148 35.4506V31.7024L72.7247 16.2236V19.9719Z" fill="#D8D3CC"/>
<path d="M45.9153 31.7026L28.3824 21.5798L55.1924 6.10107L72.7253 16.2239L45.9153 31.7026Z" fill="#F0ECE6"/>
<path d="M46.4192 30.3109L30.7925 21.2892L35.956 18.3081L51.5827 27.3298L46.4192 30.3109Z" fill="#353433"/>
<path d="M65.3808 19.3632L49.7542 10.3414L54.9177 7.36035L70.5444 16.3834L65.3808 19.3632Z" fill="#353433"/>
<path d="M51.2003 20.9302L39.5667 14.2126V18.029L51.2003 24.7465V20.9302Z" fill="#C5C0B6"/>
<path d="M61.0831 19.041L51.2 24.7465V20.9301L61.0831 15.2246V19.041Z" fill="#D8D3CC"/>
<path d="M51.2004 20.9301L39.5668 14.2126L49.4487 8.50708L61.0836 15.2246L51.2004 20.9301Z" fill="#F6F2EC"/>
<path d="M53.8644 16.5039C55.84 15.3636 55.84 13.5137 53.8644 12.3721C51.8888 11.2318 48.6852 11.2318 46.7083 12.3721C44.7327 13.5124 44.7327 15.3623 46.7083 16.5039C48.6852 17.6456 51.8888 17.6456 53.8644 16.5039Z" fill="#353433"/>
<path d="M53.3456 12.0997C55.0345 11.1243 55.0345 9.54282 53.3456 8.56746C51.6568 7.5921 48.9179 7.5921 47.2277 8.56746C45.5388 9.54282 45.5388 11.1243 47.2277 12.0997C48.9166 13.0751 51.6555 13.0751 53.3456 12.0997Z" fill="#F6F2EC"/>
<path d="M52.0422 11.3481C53.0123 10.7878 53.0123 9.8805 52.0422 9.32016C51.0721 8.75982 49.4997 8.75982 48.5309 9.32016C47.5608 9.8805 47.5608 10.7878 48.5309 11.3481C49.4997 11.9084 51.0721 11.9084 52.0422 11.3481Z" fill="#353433"/>
<path d="M45.9599 10.3113V13.9221C45.9494 14.5688 46.3723 15.2182 47.2272 15.7118C48.9161 16.6871 51.655 16.6871 53.3452 15.7118C54.1791 15.23 54.602 14.6002 54.6125 13.9692V10.3571C54.602 10.9881 54.1804 11.6179 53.3452 12.0997C51.6563 13.075 48.9174 13.075 47.2272 12.0997C46.3723 11.6061 45.9494 10.958 45.9599 10.3113Z" fill="url(#paint0_linear_1200_6574)"/>
<path d="M53.0578 15.3624C52.5551 15.653 52.1466 15.4802 52.1466 14.9775V14.1448C52.1466 13.6421 52.5551 12.9979 53.0578 12.7073C53.5606 12.4166 53.969 12.5895 53.969 13.0922V13.9249C53.969 14.4276 53.5606 15.0704 53.0578 15.3624Z" fill="#33312D"/>
<path d="M47.3659 15.3624C47.8686 15.653 48.2771 15.4802 48.2771 14.9775V14.1448C48.2771 13.6421 47.8686 12.9979 47.3659 12.7073C46.8632 12.4166 46.4547 12.5895 46.4547 13.0922V13.9249C46.4547 14.4276 46.8632 15.0704 47.3659 15.3624Z" fill="#33312D"/>
<path d="M22.4327 49.0885L22.3306 48.8567L22.0216 48.6787V50.7944L22.4327 51.0314V49.2836L23.2025 49.7287V49.3595L22.7325 49.0885H22.4327Z" fill="#212020"/>
<path d="M23.947 49.7693H23.4561V51.36L23.947 51.9268L24.7639 52.3982H25.2549V50.8075L24.7639 50.2406L23.947 49.7693ZM24.8438 52.0774L23.8658 51.5132V50.0914L24.8438 50.6556V52.0774Z" fill="#212020"/>
<path d="M26.4326 51.204H26.1328V50.078L25.7217 49.8411V52.9517L25.8316 53.0146H26.1314L26.4313 53.3615L27.0702 53.7307H27.5611V52.14L27.0702 51.5731L26.4326 51.204ZM27.1526 53.4087L26.1328 52.8195V51.3977L27.1526 51.9869V53.4087Z" fill="#212020"/>
<path d="M28.5204 52.4084H28.0294V53.9991L28.5204 54.566L29.3373 55.0373H29.8283V53.4466L29.3373 52.8798L28.5204 52.4084ZM29.4172 54.7166L28.4405 54.1523V52.7305L29.4172 53.2948V54.7166Z" fill="#212020"/>
<path d="M30.9248 53.2253H30.515V53.5815L30.1249 53.3563V53.7242L30.515 53.9493V55.4131L31.0059 55.9799L31.4328 56.2274V55.8582L30.9248 55.5662V54.1863L31.4328 54.4796V54.1117L30.9248 53.8184V53.2253Z" fill="#212020"/>
<path d="M31.792 53.7989L32.245 54.0608V53.6078L31.792 53.3459V53.7989Z" fill="#212020"/>
<path d="M31.8138 56.4477L32.2249 56.6847V54.569L31.8138 54.332V56.4477Z" fill="#212020"/>
<path d="M34.2776 56.1213V55.7534L33.1817 55.1211H32.6908V56.6699L33.1817 57.2368L34.2776 57.8691V57.5013L33.1006 56.8218V55.4432L34.2776 56.1213Z" fill="#212020"/>
<path d="M23.4557 51.9448V52.3441L34.2763 58.5904V58.1924L23.4557 51.9448Z" fill="#A02D33"/>
<path d="M34.2764 51.8352L22.0209 44.7603V47.7426L34.2764 54.8189V51.8352Z" fill="#A02D33"/>
<path d="M52.8042 54.6292C52.3931 54.6292 52.0605 54.2967 52.0605 53.8856V49.5613C52.0605 49.4435 52.0893 49.3269 52.143 49.2209L54.281 45.0472L47.6511 41.2203C47.295 41.0161 47.1733 40.5592 47.3788 40.2044C47.5844 39.8496 48.0361 39.7239 48.3948 39.9321L55.6373 44.1124C55.9816 44.3101 56.1086 44.7421 55.928 45.0969L53.5491 49.7393V53.8843C53.5491 54.2967 53.2166 54.6292 52.8042 54.6292Z" fill="#353433"/>
<path d="M92.9933 31.4274C92.5822 31.4274 92.2497 31.0948 92.2497 30.6838V27.3387L81.9227 30.2006C81.7263 30.2517 81.5221 30.2281 81.3506 30.1273L74.1093 25.947C73.7519 25.7415 73.6315 25.2859 73.837 24.9311C74.0412 24.5763 74.4942 24.4519 74.8529 24.6588L81.8245 28.6833L92.793 25.642C93.0208 25.5804 93.2591 25.625 93.4424 25.7677C93.6283 25.9078 93.737 26.1264 93.737 26.3594V30.6838C93.737 31.0948 93.4044 31.4274 92.9933 31.4274Z" fill="#353433"/>
<defs>
<linearGradient id="paint0_linear_1200_6574" x1="45.142" y1="13.377" x2="55.0687" y2="13.377" gradientUnits="userSpaceOnUse">
<stop stop-color="#C5C0B6"/>
<stop offset="1" stop-color="#D8D3CC"/>
</linearGradient>
</defs>
</svg>
