<svg width="25" height="25" viewBox="0 0 25 25" fill="none" xmlns="http://www.w3.org/2000/svg">
<path d="M12.2341 2.75C10.3058 2.75 8.4207 3.32183 6.81733 4.39317C5.21395 5.46451 3.96426 6.98726 3.22631 8.76884C2.48836 10.5504 2.29527 12.5108 2.67148 14.4021C3.04768 16.2934 3.97628 18.0307 5.33984 19.3943C6.70341 20.7579 8.44069 21.6865 10.332 22.0627C12.2233 22.4389 14.1837 22.2458 15.9653 21.5078C17.7469 20.7699 19.2696 19.5202 20.341 17.9168C21.4123 16.3134 21.9841 14.4284 21.9841 12.5C21.9814 9.91498 20.9533 7.43661 19.1254 5.60872C17.2975 3.78084 14.8192 2.75273 12.2341 2.75ZM12.2341 20.75C10.6024 20.75 9.00739 20.2661 7.65068 19.3596C6.29398 18.4531 5.23655 17.1646 4.61213 15.6571C3.98771 14.1496 3.82433 12.4908 4.14266 10.8905C4.46098 9.29016 5.24672 7.82015 6.4005 6.66637C7.55429 5.51259 9.0243 4.72685 10.6246 4.40852C12.225 4.09019 13.8838 4.25357 15.3913 4.87799C16.8988 5.50242 18.1872 6.55984 19.0938 7.91655C20.0003 9.27325 20.4841 10.8683 20.4841 12.5C20.4817 14.6873 19.6117 16.7843 18.065 18.3309C16.5184 19.8775 14.4214 20.7475 12.2341 20.75ZM13.7341 17C13.7341 17.1989 13.6551 17.3897 13.5145 17.5303C13.3738 17.671 13.183 17.75 12.9841 17.75C12.5863 17.75 12.2048 17.592 11.9235 17.3107C11.6422 17.0294 11.4841 16.6478 11.4841 16.25V12.5C11.2852 12.5 11.0945 12.421 10.9538 12.2803C10.8132 12.1397 10.7341 11.9489 10.7341 11.75C10.7341 11.5511 10.8132 11.3603 10.9538 11.2197C11.0945 11.079 11.2852 11 11.4841 11C11.882 11 12.2635 11.158 12.5448 11.4393C12.8261 11.7206 12.9841 12.1022 12.9841 12.5V16.25C13.183 16.25 13.3738 16.329 13.5145 16.4697C13.6551 16.6103 13.7341 16.8011 13.7341 17ZM10.7341 8.375C10.7341 8.1525 10.8001 7.93499 10.9237 7.74998C11.0473 7.56498 11.223 7.42078 11.4286 7.33564C11.6342 7.25049 11.8604 7.22821 12.0786 7.27162C12.2968 7.31502 12.4973 7.42217 12.6546 7.5795C12.812 7.73684 12.9191 7.93729 12.9625 8.15552C13.0059 8.37375 12.9836 8.59995 12.8985 8.80552C12.8134 9.01109 12.6692 9.18679 12.4842 9.3104C12.2991 9.43402 12.0816 9.5 11.8591 9.5C11.5608 9.5 11.2746 9.38147 11.0636 9.1705C10.8527 8.95952 10.7341 8.67337 10.7341 8.375Z" fill="#4F4F4F"/>
</svg>
