<svg width="16" height="16" viewBox="0 0 16 16" fill="none" xmlns="http://www.w3.org/2000/svg">
<path d="M4.81137 7.27128C4.64994 6.98082 4.39664 6.75219 4.09122 6.62127C3.78579 6.49035 3.44554 6.46455 3.12387 6.54793C2.8022 6.63131 2.51732 6.81914 2.31396 7.08195C2.11059 7.34475 2.00024 7.66764 2.00024 7.99994C2.00024 8.33224 2.11059 8.65514 2.31396 8.91794C2.51732 9.18074 2.8022 9.36858 3.12387 9.45196C3.44554 9.53534 3.78579 9.50954 4.09122 9.37862C4.39664 9.2477 4.64994 9.01907 4.81137 8.72861M4.81137 7.27128C4.93137 7.48728 5.00003 7.73528 5.00003 7.99994C5.00003 8.26461 4.93137 8.51328 4.81137 8.72861M4.81137 7.27128L11.1887 3.72861M4.81137 8.72861L11.1887 12.2713M11.1887 3.72861C11.2822 3.9047 11.4099 4.06039 11.5642 4.18656C11.7186 4.31274 11.8966 4.40687 12.0878 4.46346C12.279 4.52005 12.4795 4.53796 12.6777 4.51614C12.8759 4.49432 13.0677 4.43321 13.242 4.33639C13.4163 4.23956 13.5695 4.10896 13.6927 3.95222C13.816 3.79548 13.9067 3.61575 13.9596 3.42353C14.0126 3.23132 14.0267 3.03047 14.0011 2.83274C13.9756 2.63501 13.9108 2.44436 13.8107 2.27194C13.6134 1.93217 13.2907 1.68337 12.9119 1.57902C12.5331 1.47467 12.1285 1.52311 11.7851 1.71391C11.4416 1.90472 11.1867 2.22267 11.0752 2.59941C10.9637 2.97615 11.0044 3.3816 11.1887 3.72861ZM11.1887 12.2713C11.093 12.4435 11.0322 12.6329 11.0097 12.8287C10.9872 13.0245 11.0035 13.2227 11.0576 13.4122C11.1118 13.6016 11.2027 13.7786 11.3252 13.9329C11.4477 14.0872 11.5995 14.2159 11.7717 14.3116C11.944 14.4073 12.1334 14.4681 12.3291 14.4906C12.5249 14.5131 12.7231 14.4968 12.9126 14.4427C13.1021 14.3885 13.279 14.2976 13.4333 14.1751C13.5877 14.0526 13.7163 13.9009 13.812 13.7286C14.0053 13.3807 14.0524 12.9703 13.9431 12.5877C13.8338 12.2051 13.5769 11.8815 13.229 11.6883C12.8812 11.495 12.4708 11.4479 12.0881 11.5572C11.7055 11.6665 11.382 11.9234 11.1887 12.2713Z" stroke="black" stroke-width="1.5" stroke-linecap="round" stroke-linejoin="round"/>
</svg>
