<svg width="28" height="27" viewBox="0 0 28 27" fill="none" xmlns="http://www.w3.org/2000/svg">
<path d="M14.2341 8.43747C13.2328 8.43747 12.2541 8.73438 11.4215 9.29066C10.589 9.84693 9.94015 10.6376 9.55698 11.5626C9.17381 12.4877 9.07355 13.5056 9.26889 14.4876C9.46423 15.4696 9.94639 16.3717 10.6544 17.0797C11.3624 17.7877 12.2644 18.2699 13.2465 18.4652C14.2285 18.6605 15.2464 18.5603 16.1715 18.1771C17.0965 17.7939 17.8872 17.1451 18.4434 16.3125C18.9997 15.48 19.2966 14.5012 19.2966 13.5C19.2952 12.1577 18.7614 10.8709 17.8123 9.92179C16.8632 8.97268 15.5763 8.43887 14.2341 8.43747ZM14.2341 16.875C13.5666 16.875 12.9141 16.677 12.3591 16.3062C11.8041 15.9353 11.3715 15.4082 11.116 14.7915C10.8606 14.1748 10.7937 13.4962 10.924 12.8415C11.0542 12.1869 11.3756 11.5855 11.8476 11.1135C12.3196 10.6415 12.921 10.32 13.5757 10.1898C14.2304 10.0596 14.909 10.1264 15.5257 10.3819C16.1424 10.6373 16.6695 11.0699 17.0403 11.6249C17.4112 12.1799 17.6091 12.8325 17.6091 13.5C17.6091 14.3951 17.2535 15.2535 16.6206 15.8865C15.9877 16.5194 15.1292 16.875 14.2341 16.875ZM23.5154 13.7278C23.5196 13.5759 23.5196 13.424 23.5154 13.2722L25.089 11.3062C25.1715 11.203 25.2286 11.0818 25.2557 10.9525C25.2828 10.8232 25.2792 10.6893 25.2451 10.5616C24.9871 9.59193 24.6012 8.66091 24.0976 7.79306C24.0316 7.67949 23.9401 7.58288 23.8302 7.51092C23.7203 7.43896 23.5952 7.39364 23.4647 7.37857L20.963 7.10013C20.859 6.99044 20.7535 6.88497 20.6466 6.78372L20.3513 4.27567C20.3361 4.14512 20.2906 4.01991 20.2185 3.91005C20.1463 3.80018 20.0495 3.70869 19.9358 3.64286C19.0676 3.14014 18.1366 2.75464 17.1672 2.49642C17.0395 2.46245 16.9055 2.45898 16.7762 2.48628C16.6468 2.51357 16.5257 2.57088 16.4226 2.65357L14.4619 4.21872C14.3101 4.21872 14.1582 4.21872 14.0063 4.21872L12.0404 2.64829C11.9371 2.56578 11.816 2.50867 11.6867 2.48156C11.5573 2.45445 11.4234 2.45809 11.2958 2.4922C10.3262 2.75063 9.39527 3.13649 8.5272 3.6397C8.41363 3.70564 8.31702 3.79719 8.24506 3.90705C8.17311 4.01691 8.12779 4.14205 8.11271 4.27251L7.83427 6.77845C7.72459 6.88321 7.61912 6.98868 7.51787 7.09485L5.00982 7.38278C4.87926 7.39797 4.75406 7.44345 4.64419 7.5156C4.53433 7.58775 4.44283 7.68456 4.37701 7.79833C3.87429 8.66651 3.48879 9.59746 3.23056 10.5669C3.1966 10.6946 3.19313 10.8286 3.22042 10.9579C3.24772 11.0873 3.30502 11.2084 3.38771 11.3115L4.95287 13.2722C4.95287 13.424 4.95287 13.5759 4.95287 13.7278L3.38244 15.6937C3.29993 15.7969 3.24282 15.9181 3.2157 16.0474C3.18859 16.1768 3.19224 16.3107 3.22634 16.4383C3.48431 17.408 3.8702 18.339 4.37384 19.2069C4.43979 19.3205 4.53134 19.4171 4.6412 19.489C4.75106 19.561 4.8762 19.6063 5.00666 19.6214L7.50838 19.8998C7.61314 20.0095 7.71861 20.115 7.82478 20.2162L8.11693 22.7243C8.13212 22.8548 8.1776 22.98 8.24975 23.0899C8.32189 23.1998 8.41871 23.2913 8.53248 23.3571C9.40066 23.8598 10.3316 24.2453 11.301 24.5035C11.4288 24.5375 11.5627 24.541 11.6921 24.5137C11.8214 24.4864 11.9425 24.4291 12.0456 24.3464L14.0063 22.7812C14.1582 22.7854 14.3101 22.7854 14.4619 22.7812L16.4279 24.3548C16.5311 24.4373 16.6522 24.4944 16.7816 24.5215C16.9109 24.5487 17.0448 24.545 17.1725 24.5109C18.1422 24.2529 19.0732 23.8671 19.941 23.3634C20.0546 23.2975 20.1512 23.2059 20.2232 23.0961C20.2951 22.9862 20.3404 22.8611 20.3555 22.7306L20.634 20.2289C20.7436 20.1248 20.8491 20.0193 20.9504 19.9125L23.4584 19.6172C23.589 19.602 23.7142 19.5565 23.824 19.4843C23.9339 19.4122 24.0254 19.3154 24.0912 19.2016C24.5939 18.3334 24.9794 17.4025 25.2377 16.4331C25.2716 16.3053 25.2751 16.1714 25.2478 16.042C25.2205 15.9127 25.1632 15.7916 25.0805 15.6884L23.5154 13.7278ZM21.8173 13.0422C21.8352 13.3471 21.8352 13.6528 21.8173 13.9577C21.8048 14.1664 21.8702 14.3724 22.0008 14.5357L23.4974 16.4056C23.3257 16.9514 23.1058 17.4808 22.8404 17.9877L20.4568 18.2577C20.2492 18.2807 20.0575 18.3799 19.9189 18.5361C19.7159 18.7644 19.4996 18.9807 19.2713 19.1837C19.1151 19.3223 19.0159 19.514 18.9929 19.7216L18.7281 22.1031C18.2214 22.3686 17.6919 22.5885 17.1461 22.7601L15.2751 21.2635C15.1254 21.1439 14.9394 21.0788 14.7477 21.079H14.6971C14.3922 21.0969 14.0865 21.0969 13.7817 21.079C13.5729 21.0664 13.3669 21.1318 13.2037 21.2625L11.3285 22.7601C10.7827 22.5884 10.2533 22.3685 9.74642 22.1031L9.47642 19.7226C9.45338 19.515 9.35417 19.3234 9.19798 19.1847C8.96965 18.9817 8.75342 18.7655 8.55041 18.5372C8.41175 18.381 8.22009 18.2818 8.01252 18.2587L5.63103 17.9929C5.36545 17.4862 5.14556 16.9567 4.97396 16.4109L6.47056 14.5399C6.60124 14.3766 6.66664 14.1707 6.65408 13.9619C6.63615 13.657 6.63615 13.3513 6.65408 13.0465C6.66664 12.8377 6.60124 12.6317 6.47056 12.4685L4.97396 10.5943C5.14569 10.0485 5.36558 9.51912 5.63103 9.01228L8.01146 8.74228C8.21904 8.71923 8.4107 8.62002 8.54935 8.46384C8.75237 8.23551 8.9686 8.01928 9.19693 7.81626C9.35374 7.67751 9.45336 7.48542 9.47642 7.27732L9.74115 4.89689C10.2479 4.63131 10.7774 4.41141 11.3232 4.23982L13.1942 5.73642C13.3575 5.8671 13.5634 5.9325 13.7722 5.91993C14.0771 5.902 14.3827 5.902 14.6876 5.91993C14.8964 5.9325 15.1023 5.8671 15.2656 5.73642L17.1398 4.23982C17.6855 4.41155 18.215 4.63143 18.7218 4.89689L18.9918 7.27732C19.0149 7.48489 19.1141 7.67655 19.2703 7.81521C19.4986 8.01822 19.7148 8.23445 19.9178 8.46278C20.0565 8.61897 20.2481 8.71818 20.4557 8.74122L22.8372 9.00595C23.1028 9.51273 23.3227 10.0422 23.4943 10.588L21.9977 12.459C21.8657 12.6236 21.8003 12.8317 21.8142 13.0422H21.8173Z" fill="black"/>
</svg>
