<svg width="19" height="18" viewBox="0 0 19 18" fill="none" xmlns="http://www.w3.org/2000/svg">
<path d="M15.0934 2.24976H13.4059V1.68726C13.4059 1.53807 13.3466 1.395 13.2411 1.28951C13.1356 1.18402 12.9926 1.12476 12.8434 1.12476C12.6942 1.12476 12.5511 1.18402 12.4456 1.28951C12.3401 1.395 12.2809 1.53807 12.2809 1.68726V2.24976H6.65588V1.68726C6.65588 1.53807 6.59662 1.395 6.49113 1.28951C6.38564 1.18402 6.24257 1.12476 6.09338 1.12476C5.9442 1.12476 5.80113 1.18402 5.69564 1.28951C5.59015 1.395 5.53088 1.53807 5.53088 1.68726V2.24976H3.84338C3.54502 2.24976 3.25887 2.36828 3.04789 2.57926C2.83691 2.79024 2.71838 3.07639 2.71838 3.37476V14.6248C2.71838 14.9231 2.83691 15.2093 3.04789 15.4203C3.25887 15.6312 3.54502 15.7498 3.84338 15.7498H15.0934C15.3918 15.7498 15.6779 15.6312 15.8889 15.4203C16.0999 15.2093 16.2184 14.9231 16.2184 14.6248V3.37476C16.2184 3.07639 16.0999 2.79024 15.8889 2.57926C15.6779 2.36828 15.3918 2.24976 15.0934 2.24976ZM5.53088 3.37476V3.93726C5.53088 4.08644 5.59015 4.22951 5.69564 4.335C5.80113 4.44049 5.9442 4.49976 6.09338 4.49976C6.24257 4.49976 6.38564 4.44049 6.49113 4.335C6.59662 4.22951 6.65588 4.08644 6.65588 3.93726V3.37476H12.2809V3.93726C12.2809 4.08644 12.3401 4.22951 12.4456 4.335C12.5511 4.44049 12.6942 4.49976 12.8434 4.49976C12.9926 4.49976 13.1356 4.44049 13.2411 4.335C13.3466 4.22951 13.4059 4.08644 13.4059 3.93726V3.37476H15.0934V5.62476H3.84338V3.37476H5.53088ZM15.0934 14.6248H3.84338V6.74976H15.0934V14.6248Z" fill="black"/>
</svg>
