<svg width="19" height="18" viewBox="0 0 19 18" fill="none" xmlns="http://www.w3.org/2000/svg">
<g clip-path="url(#clip0_1200_6800)">
<path d="M11.7184 7.87476C11.7184 8.47149 11.4813 9.04379 11.0594 9.46575C10.6374 9.8877 10.0651 10.1248 9.46838 10.1248C8.87165 10.1248 8.29935 9.8877 7.87739 9.46575C7.45544 9.04379 7.21838 8.47149 7.21838 7.87476C7.21838 7.27802 7.45544 6.70572 7.87739 6.28377C8.29935 5.86181 8.87165 5.62476 9.46838 5.62476C10.0651 5.62476 10.6374 5.86181 11.0594 6.28377C11.4813 6.70572 11.7184 7.27802 11.7184 7.87476Z" stroke="black" stroke-width="1.5" stroke-linecap="round" stroke-linejoin="round"/>
<path d="M15.0934 7.87476C15.0934 13.2313 9.46838 16.3123 9.46838 16.3123C9.46838 16.3123 3.84338 13.2313 3.84338 7.87476C3.84338 6.38291 4.43602 4.95217 5.49091 3.89728C6.5458 2.84239 7.97654 2.24976 9.46838 2.24976C10.9602 2.24976 12.391 2.84239 13.4459 3.89728C14.5008 4.95217 15.0934 6.38291 15.0934 7.87476Z" stroke="black" stroke-width="1.5" stroke-linecap="round" stroke-linejoin="round"/>
</g>
<defs>
<clipPath id="clip0_1200_6800">
<rect width="18" height="18" fill="white" transform="translate(0.468384 -0.000244141)"/>
</clipPath>
</defs>
</svg>
